<?xml version="1.0" encoding="UTF-8"?>
<svg id="Layer_1" data-name="Layer 1" xmlns="http://www.w3.org/2000/svg" xmlns:xlink="http://www.w3.org/1999/xlink" viewBox="0 0 492 453.33">
  <defs>
    <style>
      .cls-1 {
        opacity: .37;
      }

      .cls-1, .cls-2, .cls-3 {
        stroke-width: 0px;
      }

      .cls-1, .cls-3 {
        fill: #e0f3fd;
      }

      .cls-4 {
        clip-path: url(#clippath);
      }

      .cls-2 {
        fill: none;
      }

      .cls-3 {
        opacity: .33;
      }

      .cls-5 {
        fill: #293fff;
        stroke: #231f20;
        stroke-miterlimit: 10;
      }
    </style>
    <clipPath id="clippath">
      <rect class="cls-2" width="492" height="453.33"/>
    </clipPath>
  </defs>
  <g class="cls-4">
    <rect class="cls-5" width="492" height="452"/>
    <path class="cls-3" d="M-65.33,435.33c-.34-10.76,65.92-24.81,86.67-58,23.44-37.51,20-72,65.13-60.77s39.54-50.56,90.2-59.9c61.73-11.37,80.73,68.31,138,74,59.64,5.93,106.99-36.35,116-44,54.82-46.54,55.16-104.45,70-103.33,25.52,1.91,81.32,177.39,7.33,279.33-120.84,166.5-571.84,19.24-573.33-27.33Z"/>
    <path class="cls-1" d="M-28,351.33c24.06-14.99,54.9,37.86,118.67,34,51-3.09,60.66-38.68,162-99.33,58.38-34.94,88.33-52.35,126-49.33,55.38,4.43,93.02,46.2,112.67,68,5.78,6.41,79.93,90.46,65.33,161.33-28.42,138.02-396.84,242.65-536,106.67-70.86-69.24-81.99-200.57-48.67-221.33Z"/>
  </g>
</svg>