<svg width="144" height="150" viewBox="0 0 144 150" fill="none" xmlns="http://www.w3.org/2000/svg">
<rect x="11" y="7" width="79" height="130" rx="6" stroke="black" stroke-width="2"/>
<line x1="11" y1="19" x2="91" y2="19" stroke="black" stroke-width="2"/>
<line x1="11" y1="116" x2="91" y2="116" stroke="black" stroke-width="2"/>
<rect x="18" y="28" width="65" height="22" rx="1" stroke="black" stroke-width="2"/>
<rect x="18" y="56" width="65" height="27" rx="1" stroke="black" stroke-width="2"/>
<rect x="18" y="89" width="65" height="17" rx="1" stroke="black" stroke-width="2"/>
<rect x="64" y="25" width="65" height="40" rx="1" fill="white"/>
<rect x="64" y="25" width="65" height="40" rx="1" fill="white"/>
<rect x="64" y="25" width="65" height="40" rx="1" fill="white"/>
<rect x="64" y="25" width="65" height="40" rx="1" fill="white"/>
<rect x="64" y="25" width="65" height="40" rx="1" fill="white"/>
<rect x="64" y="25" width="65" height="40" rx="1" stroke="black" stroke-width="2"/>
<rect x="64" y="71" width="65" height="21" rx="1" fill="white"/>
<rect x="64" y="71" width="65" height="21" rx="1" fill="white"/>
<rect x="64" y="71" width="65" height="21" rx="1" fill="white"/>
<rect x="64" y="71" width="65" height="21" rx="1" fill="white"/>
<rect x="64" y="71" width="65" height="21" rx="1" fill="white"/>
<rect x="64" y="71" width="65" height="21" rx="1" stroke="black" stroke-width="2"/>
<path d="M24 35H63" stroke="black" stroke-width="2" stroke-linecap="round"/>
<path d="M24 42H46" stroke="black" stroke-width="2" stroke-linecap="round"/>
<path d="M24 63H63" stroke="black" stroke-width="2" stroke-linecap="round"/>
<path d="M24 70H51" stroke="black" stroke-width="2" stroke-linecap="round"/>
<path d="M72 78H120" stroke="black" stroke-width="2" stroke-linecap="round"/>
<path d="M72 85H99" stroke="black" stroke-width="2" stroke-linecap="round"/>
<path d="M72 58H99" stroke="black" stroke-width="2" stroke-linecap="round"/>
<path d="M26 98H53" stroke="black" stroke-width="2" stroke-linecap="round"/>
<path d="M49 13H59" stroke="black" stroke-width="2" stroke-linecap="round"/>
<path d="M40 13H43" stroke="black" stroke-width="2" stroke-linecap="round"/>
<path d="M24 77H59" stroke="black" stroke-width="2" stroke-linecap="round"/>
<rect x="73" y="33" width="46" height="17" rx="1" stroke="black" stroke-width="2"/>
<circle cx="49.5" cy="126.5" r="5.5" stroke="black" stroke-width="2"/>
</svg>
