<svg xmlns="http://www.w3.org/2000/svg" viewBox="0 0 400 400" id="Wireframe--Streamline-Free-Illustrations" height="400" width="400" stroke-width="1"><desc>Wireframe Streamline Illustration: https://streamlinehq.com</desc><g transform="scale(2)"><defs></defs><path d="M28.983 131.098h18.431v8.323H28.983Z" fill="#0400bf"></path><path d="M28.983 143.112h18.431v8.323H28.983Z" fill="#0400bf"></path><path d="M28.983 155.126h18.431v22.99H28.983Z" fill="#0400bf"></path><path d="M162.954 39.219a5.378 5.378 0 1 1-5.378 5.378 5.38 5.38 0 0 1 5.378-5.378Z" fill="#0400bf"></path><path d="M162.954 64.448a5.38 5.38 0 1 1-5.378 5.382 5.381 5.381 0 0 1 5.378-5.382Z" fill="#0400bf"></path><path d="M12.552 50.647a10.227 10.227 0 1 0 20.454 0 10.227 10.227 0 1 0-20.454 0" fill="#0400bf"></path><path d="M114.889 29.548a1.842 1.842 0 1 0 3.684 0 1.842 1.842 0 1 0-3.684 0" fill="#0400bf"></path><path d="M44.228 39.219a1.842 1.842 0 1 0 3.684 0 1.842 1.842 0 1 0-3.684 0" fill="#0400bf"></path><path d="M31.8 109.976a3.651 3.651 0 1 1-3.652 3.649 3.648 3.648 0 0 1 3.652-3.649Z" fill="#ffc077"></path><path d="M152.299 21.511a3.652 3.652 0 1 0 7.304 0 3.652 3.652 0 1 0-7.304 0" fill="#ffc077"></path><path d="M86.263 5.844A3.652 3.652 0 1 1 82.614 9.5a3.649 3.649 0 0 1 3.649-3.656Z" fill="#ffc077"></path><path d="M12.124 21.511a3.652 3.652 0 1 0 7.304 0 3.652 3.652 0 1 0-7.304 0" fill="#ffc077"></path><path d="m145.017 117.736-4.528.672a3.968 3.968 0 0 1-3.961-3.641l0-.046a4.075 4.075 0 0 1 2.745-4.582l4.5-.668c-.274.085-2.706.9-2.119 4.8a3.813 3.813 0 0 0 3.363 3.465Z" fill="#69d6f9"></path><path d="M176.416 35.316v55.2a1.284 1.284 0 0 1-1.282 1.282h-24.357a1.283 1.283 0 0 1-1.281-1.282v-55.2a1.284 1.284 0 0 1 1.281-1.282h24.357a1.285 1.285 0 0 1 1.282 1.282Zm-8.081 9.284a5.38 5.38 0 1 0-5.381 5.378 5.38 5.38 0 0 0 5.381-5.378Zm0 25.233a5.38 5.38 0 1 0-5.381 5.378 5.381 5.381 0 0 0 5.381-5.381Z" fill="#69d6f9"></path><path d="M52.258 127.434v55.195a1.283 1.283 0 0 1-1.281 1.282H26.62a1.284 1.284 0 0 1-1.282-1.282v-55.195a1.282 1.282 0 0 1 1.282-1.282h24.357a1.281 1.281 0 0 1 1.281 1.282Zm-4.845 50.682v-22.99h-18.43v22.99Zm0-26.68v-8.324h-18.43v8.324Zm0-12.015V131.1h-18.43v8.323Z" fill="#69d6f9"></path><path d="M106.728 23.3v55.2a1.285 1.285 0 0 1-1.282 1.286H81.089a1.285 1.285 0 0 1-1.281-1.286V23.3a1.283 1.283 0 0 1 1.281-1.282h24.357a1.283 1.283 0 0 1 1.282 1.282Z" fill="#69d6f9"></path><path d="M36.241 35.316v55.2a1.284 1.284 0 0 1-1.286 1.284H10.6a1.281 1.281 0 0 1-1.281-1.282v-55.2a1.281 1.281 0 0 1 1.281-1.284h24.355a1.285 1.285 0 0 1 1.286 1.282Zm-3.235 15.331a10.227 10.227 0 1 0-10.227 10.226 10.227 10.227 0 0 0 10.227-10.226Z" fill="#69d6f9"></path><path d="M140.759 36.517a1.844 1.844 0 1 1-1.841 1.841 1.842 1.842 0 0 1 1.841-1.841Z" fill="#0400bf"></path><path d="M138.917 54.38a1.842 1.842 0 1 0 3.684 0 1.842 1.842 0 1 0-3.684 0" fill="#0400bf"></path><path d="M138.917 62.391a1.842 1.842 0 1 0 3.684 0 1.842 1.842 0 1 0-3.684 0" fill="#0400bf"></path><path d="M140.759 68.556a1.844 1.844 0 1 1-1.841 1.845 1.842 1.842 0 0 1 1.841-1.845Z" fill="#0400bf"></path><path d="M62.088 146.378a1.844 1.844 0 1 1-1.842 1.846 1.845 1.845 0 0 1 1.842-1.846Z" fill="#0400bf"></path><path d="M62.088 162.4a1.842 1.842 0 1 1-1.842 1.841 1.844 1.844 0 0 1 1.842-1.841Z" fill="#0400bf"></path><path d="M103.736 113.578a12.621 12.621 0 0 0 4.385-.312c3.185-.846 4.988-4.243 4.988-4.243a23.21 23.21 0 0 0 3.884 4.208l-14.215 1.969a12.827 12.827 0 0 0 .954-1.56Z" fill="#0400bf"></path><path d="M97.879 102.386c3.637-5.084 12.937-12.967 19.157-13.6 1.679-.173 9.7 3.34 15.963 6.143 0 0 14.6-.522 16.609 1.745 8.331 9.377 15.631 35.027 17.056 37.876s21.959 14.315 28.765 17.836v41.486l-40.112-24.268a31.525 31.525 0 0 1-7.663 0c-21.546-4.184-50.419-25.989-56.01-28.58-4.107-1.9-5.084-5.875-5.6-8.543a14.342 14.342 0 0 0-.51-2.224 7.2 7.2 0 0 0-1.386-1.926c-.676-.742-1.486-1.51-2.208-2.224a15.459 15.459 0 0 1-1.579-1.753 4.928 4.928 0 0 1-.2-5.447 8.182 8.182 0 0 1 1.421-1.876c1.988-1.992 6.76-.29 6.953-.224a8.7 8.7 0 0 1 1.6-4.019c3.023-4.691 3.706-7.246 4.749-8.629a3.12 3.12 0 0 1 1.328-1.05c.388-.167.968-.418 1.667-.723Zm5.857 11.192 0 .066a12.827 12.827 0 0 1-.954 1.56 12.221 12.221 0 0 1-5.625 4.555c-.289.1-.594.189-.9.267a20.4 20.4 0 0 1 3.146 4.235 10.127 10.127 0 0 1 .587 1.251s11.073 6.844 12.856 7.833c0 0 11.373-6.034 14.84-7.718 0 0-3.714-3.806-4.517-4.814l17.327-2.405 4.528-.672 2.023-.3a4.179 4.179 0 0 0-1.216-8.269l-2.027.3a.11.11 0 0 0-.023 0l-4.5.668-22.276 3.092a23.21 23.21 0 0 1-3.884-4.208s-1.8 3.4-4.988 4.243a12.621 12.621 0 0 1-4.397.316Z" fill="#ffc077"></path><path d="M195.429 152.389c-6.806-3.521-27.341-14.991-28.765-17.836s-8.725-28.5-17.056-37.876C147.6 94.41 133 94.932 133 94.932" fill="none" stroke="#0400bf" stroke-linecap="round" stroke-linejoin="round" stroke-width=".772"></path><path d="m88.533 116.814 0 0c-.193-.066-4.965-1.768-6.953.224a8.182 8.182 0 0 0-1.421 1.876 4.928 4.928 0 0 0 .2 5.447 15.459 15.459 0 0 0 1.579 1.753c.722.714 1.532 1.482 2.208 2.224a7.2 7.2 0 0 1 1.386 1.926 14.342 14.342 0 0 1 .51 2.224c.517 2.667 1.494 6.64 5.6 8.543 5.591 2.591 34.464 24.4 56.01 28.58a31.525 31.525 0 0 0 7.663 0l40.112 24.268" fill="none" stroke="#0400bf" stroke-linecap="round" stroke-linejoin="round" stroke-width=".772"></path><path d="m96.242 120.022.008 0a20.4 20.4 0 0 1 3.146 4.235 10.127 10.127 0 0 1 .587 1.251s11.073 6.844 12.856 7.833c0 0 11.373-6.034 14.84-7.718 0 0-3.714-3.806-4.517-4.814l-.011-.008" fill="none" stroke="#0400bf" stroke-linecap="round" stroke-linejoin="round" stroke-width=".772"></path><path d="M84.147 128.334s1.174-4.232 2.15-5.34-1.525-3.675-3.123-4.821" fill="none" stroke="#0400bf" stroke-linecap="round" stroke-linejoin="round" stroke-width=".772"></path><path d="M87.915 129.1c-.6.923-2.1 2.309-1.872 3.382" fill="none" stroke="#0400bf" stroke-linecap="round" stroke-linejoin="round" stroke-width=".772"></path><path d="m117.036 113.266-.043-.035a23.21 23.21 0 0 1-3.884-4.208s-1.8 3.4-4.988 4.243a12.621 12.621 0 0 1-4.385.312 12.14 12.14 0 0 1-1.873-.312" fill="none" stroke="#0400bf" stroke-linecap="round" stroke-linejoin="round" stroke-width=".772"></path><path d="M103.732 113.644a12.827 12.827 0 0 1-.954 1.56 12.221 12.221 0 0 1-5.625 4.555c-.289.1-.594.189-.9.267-.17.038-.34.073-.517.1-3.946.683-7.382-.212-7.2-3.32a8.7 8.7 0 0 1 1.6-4.019c3.023-4.691 3.706-7.247 4.749-8.629a3.12 3.12 0 0 1 1.328-1.05c.4-.17.976-.421 1.675-.726 3.077-1.366 8.567-3.887 12.223-5.8 4.482-2.344 5.907-1.834 8.559-.714s16.2 8.763 16.2 8.763" fill="none" stroke="#0400bf" stroke-linecap="round" stroke-linejoin="round" stroke-width=".772"></path><path d="M139.991 98.024c-1.278-.517-3.923-1.722-6.992-3.092-6.262-2.8-14.284-6.316-15.963-6.143-6.22.63-15.52 8.513-19.157 13.6" fill="none" stroke="#0400bf" stroke-linecap="round" stroke-linejoin="round" stroke-width=".772"></path><path d="m102.778 115.204 14.215-1.973 22.276-3.092" fill="none" stroke="#0400bf" stroke-linecap="round" stroke-linejoin="round" stroke-width=".772"></path><path d="m140.489 118.408-17.327 2.405-23.403 3.251" fill="none" stroke="#0400bf" stroke-linecap="round" stroke-linejoin="round" stroke-width=".772"></path><path d="m76.654 121.033-4.502 2.73 3.591.926.806.209 5.247 1.355" fill="none" stroke="#0400bf" stroke-linecap="round" stroke-linejoin="round" stroke-width=".772"></path><path d="m80.151 118.91-3.497 2.123" fill="none" stroke="#0400bf" stroke-linecap="round" stroke-linejoin="round" stroke-width=".772"></path><path d="m145.017 117.736-4.528.672a3.968 3.968 0 0 1-3.961-3.641l0-.046a4.075 4.075 0 0 1 2.745-4.582l4.5-.668" fill="none" stroke="#0400bf" stroke-linecap="round" stroke-linejoin="round" stroke-width=".772"></path><path d="m145.017 117.736 2.023-.3a4.179 4.179 0 0 0-1.216-8.269l-2.027.3a.11.11 0 0 0-.023 0c-.274.085-2.706.9-2.119 4.8a3.813 3.813 0 0 0 3.362 3.469Z" fill="none" stroke="#0400bf" stroke-linecap="round" stroke-linejoin="round" stroke-width=".772"></path><path d="m72.152 123.763-2.281.22" fill="none" stroke="#0400bf" stroke-linecap="round" stroke-linejoin="round" stroke-width=".772"></path><path d="M34.974 94.8H10.583a5.155 5.155 0 0 1-5.154-5.154V35.339a5.156 5.156 0 0 1 5.154-5.154h24.391a5.155 5.155 0 0 1 5.154 5.154v54.307a5.155 5.155 0 0 1-5.154 5.154Z" fill="none" stroke="#0400bf" stroke-linecap="round" stroke-linejoin="round" stroke-width=".772"></path><path d="M34.955 91.8H10.6a1.281 1.281 0 0 1-1.281-1.282v-55.2a1.281 1.281 0 0 1 1.281-1.284h24.355a1.285 1.285 0 0 1 1.286 1.282v55.2a1.284 1.284 0 0 1-1.286 1.284Z" fill="none" stroke="#0400bf" stroke-linecap="round" stroke-linejoin="round" stroke-width=".772"></path><path d="m15.749 32.073 12.859 0" fill="none" stroke="#0400bf" stroke-linecap="round" stroke-linejoin="round" stroke-width=".772"></path><path d="m30.882 21.904-8.705 0" fill="none" stroke="#0400bf" stroke-linecap="round" stroke-linejoin="round" stroke-width=".772"></path><path d="M12.124 21.511a3.652 3.652 0 1 0 7.304 0 3.652 3.652 0 1 0-7.304 0" fill="none" stroke="#0400bf" stroke-linecap="round" stroke-linejoin="round" stroke-width=".772"></path><path d="M51 186.915H26.605a5.153 5.153 0 0 1-5.154-5.154v-54.308a5.152 5.152 0 0 1 5.154-5.153H51a5.155 5.155 0 0 1 5.154 5.153v54.308A5.156 5.156 0 0 1 51 186.915Z" fill="none" stroke="#0400bf" stroke-linecap="round" stroke-linejoin="round" stroke-width=".772"></path><path d="M50.977 183.911H26.62a1.284 1.284 0 0 1-1.282-1.282v-55.195a1.282 1.282 0 0 1 1.282-1.282h24.357a1.281 1.281 0 0 1 1.281 1.282v55.195a1.283 1.283 0 0 1-1.281 1.282Z" fill="none" stroke="#0400bf" stroke-linecap="round" stroke-linejoin="round" stroke-width=".772"></path><path d="m31.766 124.187 12.86 0" fill="none" stroke="#0400bf" stroke-linecap="round" stroke-linejoin="round" stroke-width=".772"></path><path d="m46.904 114.022-8.706 0" fill="none" stroke="#0400bf" stroke-linecap="round" stroke-linejoin="round" stroke-width=".772"></path><path d="M35.445 113.625a3.65 3.65 0 1 1-3.648-3.649 3.649 3.649 0 0 1 3.648 3.649Z" fill="none" stroke="#0400bf" stroke-linecap="round" stroke-linejoin="round" stroke-width=".772"></path><path d="M105.461 82.782H81.07a5.149 5.149 0 0 1-5.15-5.154v-54.3a5.15 5.15 0 0 1 5.15-5.154h24.391a5.15 5.15 0 0 1 5.154 5.154v54.3a5.149 5.149 0 0 1-5.154 5.154Z" fill="none" stroke="#0400bf" stroke-linecap="round" stroke-linejoin="round" stroke-width=".772"></path><path d="M105.446 79.783H81.089a1.285 1.285 0 0 1-1.281-1.283V23.3a1.283 1.283 0 0 1 1.281-1.282h24.357a1.283 1.283 0 0 1 1.282 1.282v55.2a1.285 1.285 0 0 1-1.282 1.283Z" fill="none" stroke="#0400bf" stroke-linecap="round" stroke-linejoin="round" stroke-width=".772"></path><path d="m86.236 20.059 12.859 0" fill="none" stroke="#0400bf" stroke-linecap="round" stroke-linejoin="round" stroke-width=".772"></path><path d="m101.373 9.89-8.706 0" fill="none" stroke="#0400bf" stroke-linecap="round" stroke-linejoin="round" stroke-width=".772"></path><path d="M89.915 9.5a3.651 3.651 0 1 1-3.652-3.652A3.651 3.651 0 0 1 89.915 9.5Z" fill="none" stroke="#0400bf" stroke-linecap="round" stroke-linejoin="round" stroke-width=".772"></path><path d="M175.149 94.8h-24.391a5.155 5.155 0 0 1-5.154-5.154V35.339a5.156 5.156 0 0 1 5.154-5.154h24.391a5.153 5.153 0 0 1 5.154 5.154v54.307a5.152 5.152 0 0 1-5.154 5.154Z" fill="none" stroke="#0400bf" stroke-linecap="round" stroke-linejoin="round" stroke-width=".772"></path><path d="M175.134 91.8h-24.357a1.283 1.283 0 0 1-1.281-1.282v-55.2a1.284 1.284 0 0 1 1.281-1.282h24.357a1.285 1.285 0 0 1 1.282 1.282v55.2a1.284 1.284 0 0 1-1.282 1.282Z" fill="none" stroke="#0400bf" stroke-linecap="round" stroke-linejoin="round" stroke-width=".772"></path><path d="m155.924 32.073 12.859 0" fill="none" stroke="#0400bf" stroke-linecap="round" stroke-linejoin="round" stroke-width=".772"></path><path d="m171.057 21.904-8.706 0" fill="none" stroke="#0400bf" stroke-linecap="round" stroke-linejoin="round" stroke-width=".772"></path><path d="M152.299 21.511a3.652 3.652 0 1 0 7.304 0 3.652 3.652 0 1 0-7.304 0" fill="none" stroke="#0400bf" stroke-linecap="round" stroke-linejoin="round" stroke-width=".772"></path><path d="M63.933 148.224a1.844 1.844 0 1 1-1.845-1.846 1.844 1.844 0 0 1 1.845 1.846Z" fill="none" stroke="#0400bf" stroke-linecap="round" stroke-linejoin="round" stroke-width=".772"></path><path d="M63.933 164.241a1.844 1.844 0 1 1-1.845-1.841 1.842 1.842 0 0 1 1.845 1.841Z" fill="none" stroke="#0400bf" stroke-linecap="round" stroke-linejoin="round" stroke-width=".772"></path><path d="m64.126 164.241 49.42 0 0-9.211" fill="none" stroke="#0400bf" stroke-linecap="round" stroke-linejoin="round" stroke-width=".772"></path><path d="M44.228 39.219a1.842 1.842 0 1 0 3.684 0 1.842 1.842 0 1 0-3.684 0" fill="none" stroke="#0400bf" stroke-linecap="round" stroke-linejoin="round" stroke-width=".772"></path><path d="m47.911 39.219 14.177 0 0 58.681 39.617 0" fill="none" stroke="#0400bf" stroke-linecap="round" stroke-linejoin="round" stroke-width=".772"></path><path d="m66.994 123.983-3.061 0 0-19.821 30.943 0 .004 0" fill="none" stroke="#0400bf" stroke-linecap="round" stroke-linejoin="round" stroke-width=".772"></path><path d="M142.6 38.358a1.842 1.842 0 1 1-1.842-1.841 1.843 1.843 0 0 1 1.842 1.841Z" fill="none" stroke="#0400bf" stroke-linecap="round" stroke-linejoin="round" stroke-width=".772"></path><path d="M114.889 29.548a1.842 1.842 0 1 0 3.684 0 1.842 1.842 0 1 0-3.684 0" fill="none" stroke="#0400bf" stroke-linecap="round" stroke-linejoin="round" stroke-width=".772"></path><path d="M138.917 54.38a1.842 1.842 0 1 0 3.684 0 1.842 1.842 0 1 0-3.684 0" fill="none" stroke="#0400bf" stroke-linecap="round" stroke-linejoin="round" stroke-width=".772"></path><path d="M138.917 62.391a1.842 1.842 0 1 0 3.684 0 1.842 1.842 0 1 0-3.684 0" fill="none" stroke="#0400bf" stroke-linecap="round" stroke-linejoin="round" stroke-width=".772"></path><path d="M142.6 70.4a1.842 1.842 0 1 1-1.842-1.845A1.842 1.842 0 0 1 142.6 70.4Z" fill="none" stroke="#0400bf" stroke-linecap="round" stroke-linejoin="round" stroke-width=".772"></path><path d="m116.731 31.39 0 22.99 8.686 0 13.501 0" fill="none" stroke="#0400bf" stroke-linecap="round" stroke-linejoin="round" stroke-width=".772"></path><path d="m138.918 62.391-6.154 0 0 32.139" fill="none" stroke="#0400bf" stroke-linecap="round" stroke-linejoin="round" stroke-width=".772"></path><path d="m138.918 70.401-2.417 0 0 24.129" fill="none" stroke="#0400bf" stroke-linecap="round" stroke-linejoin="round" stroke-width=".772"></path><path d="m138.918 38.358-13.501 0 0 16.022 0 37.015" fill="none" stroke="#0400bf" stroke-linecap="round" stroke-linejoin="round" stroke-width=".772"></path><path d="M12.552 50.647a10.227 10.227 0 1 0 20.454 0 10.227 10.227 0 1 0-20.454 0" fill="none" stroke="#0400bf" stroke-linecap="round" stroke-linejoin="round" stroke-width=".772"></path><path d="m12.822 66.88 18.713 0" fill="none" stroke="#0400bf" stroke-linecap="round" stroke-linejoin="round" stroke-width=".772"></path><path d="m12.822 72.888 18.713 0" fill="none" stroke="#0400bf" stroke-linecap="round" stroke-linejoin="round" stroke-width=".772"></path><path d="m12.822 78.895 18.713 0" fill="none" stroke="#0400bf" stroke-linecap="round" stroke-linejoin="round" stroke-width=".772"></path><path d="M28.983 131.098h18.431v8.323H28.983Z" fill="none" stroke="#0400bf" stroke-linecap="round" stroke-linejoin="round" stroke-width=".772"></path><path d="M28.983 143.112h18.431v8.323H28.983Z" fill="none" stroke="#0400bf" stroke-linecap="round" stroke-linejoin="round" stroke-width=".772"></path><path d="M28.983 155.126h18.431v22.99H28.983Z" fill="none" stroke="#0400bf" stroke-linecap="round" stroke-linejoin="round" stroke-width=".772"></path><path d="M168.335 44.6a5.38 5.38 0 1 1-5.381-5.378 5.38 5.38 0 0 1 5.381 5.378Z" fill="none" stroke="#0400bf" stroke-linecap="round" stroke-linejoin="round" stroke-width=".772"></path><path d="m155.375 55.422 15.161 0" fill="none" stroke="#0400bf" stroke-linecap="round" stroke-linejoin="round" stroke-width=".772"></path><path d="m155.375 59.426 15.161 0" fill="none" stroke="#0400bf" stroke-linecap="round" stroke-linejoin="round" stroke-width=".772"></path><path d="M168.335 69.83a5.38 5.38 0 1 1-5.381-5.382 5.38 5.38 0 0 1 5.381 5.382Z" fill="none" stroke="#0400bf" stroke-linecap="round" stroke-linejoin="round" stroke-width=".772"></path><path d="m155.375 80.651 15.161 0" fill="none" stroke="#0400bf" stroke-linecap="round" stroke-linejoin="round" stroke-width=".772"></path><path d="m155.375 84.659 15.161 0" fill="none" stroke="#0400bf" stroke-linecap="round" stroke-linejoin="round" stroke-width=".772"></path><path d="m63.933 148.224 38.845 0" fill="none" stroke="#0400bf" stroke-linecap="round" stroke-linejoin="round" stroke-width=".772"></path></g></svg>