<svg width="135" height="135" viewBox="0 0 135 135" fill="none" xmlns="http://www.w3.org/2000/svg">
<path d="M128.632 96.5235C128.384 96.5231 128.144 96.4356 127.955 96.2764C127.765 96.1172 127.637 95.8964 127.594 95.6526L120.27 54.1269C120.246 53.9906 120.249 53.8509 120.279 53.7158C120.309 53.5807 120.365 53.4527 120.444 53.3394C120.524 53.226 120.625 53.1293 120.741 53.0549C120.858 52.9806 120.988 52.9299 121.125 52.9059C121.693 52.7864 122.245 53.188 122.345 53.7604L129.669 95.2861C129.694 95.4224 129.691 95.5622 129.661 95.6975C129.632 95.8328 129.575 95.9608 129.496 96.0743C129.417 96.1877 129.316 96.2844 129.199 96.3586C129.082 96.4329 128.951 96.4833 128.815 96.5069C128.754 96.5186 128.693 96.5242 128.632 96.5235ZM129.727 102.754C129.48 102.754 129.24 102.667 129.05 102.507C128.861 102.348 128.734 102.127 128.691 101.883C127.742 96.5008 107.131 95.5126 94.3616 96.151C93.7767 96.2108 93.2868 95.733 93.2578 95.1524C93.2508 95.0141 93.2711 94.8757 93.3176 94.7452C93.3641 94.6148 93.4358 94.4947 93.5288 94.392C93.6217 94.2893 93.734 94.206 93.8592 94.1468C93.9845 94.0875 94.1201 94.0536 94.2585 94.0469C97.8228 93.8636 129.187 92.5542 130.767 101.517C130.794 101.669 130.787 101.824 130.747 101.973C130.707 102.122 130.635 102.26 130.536 102.378C130.437 102.496 130.313 102.591 130.173 102.656C130.033 102.721 129.881 102.754 129.727 102.754Z" fill="black"/>
<path d="M89.1814 67.084C88.9338 67.0839 88.6942 66.9965 88.5047 66.8371C88.3152 66.6778 88.188 66.4567 88.1454 66.2128C88.1214 66.0766 88.1244 65.9369 88.1543 65.8018C88.1843 65.6667 88.2405 65.5388 88.3199 65.4254C88.3992 65.3121 88.5001 65.2154 88.6168 65.1411C88.7335 65.0667 88.8637 65.0161 89 64.992C97.9525 63.4105 120.824 57.2604 119.173 47.8961C119.148 47.7597 119.151 47.6199 119.18 47.4846C119.21 47.3493 119.266 47.2213 119.346 47.1078C119.425 46.9943 119.526 46.8977 119.643 46.8234C119.76 46.7491 119.891 46.6987 120.027 46.675C120.597 46.5535 121.149 46.9571 121.248 47.5296C122.261 53.2679 117.093 58.3143 105.892 62.5293C97.862 65.5521 89.449 67.0529 89.3665 67.0674C89.3055 67.079 89.2435 67.0846 89.1814 67.084Z" fill="black"/>
<path d="M120.21 48.7671C119.962 48.7667 119.723 48.6792 119.533 48.52C119.343 48.3608 119.216 48.14 119.172 47.8962C119.148 47.7599 119.151 47.6201 119.18 47.4848C119.21 47.3495 119.266 47.2214 119.346 47.1079C119.425 46.9945 119.526 46.8978 119.643 46.8235C119.76 46.7493 119.89 46.6988 120.027 46.6752L124.178 45.9443C124.748 45.829 125.298 46.2264 125.399 46.7988C125.423 46.9351 125.42 47.0749 125.391 47.2102C125.361 47.3455 125.305 47.4735 125.225 47.587C125.146 47.7005 125.045 47.7971 124.928 47.8714C124.811 47.9457 124.681 47.9962 124.544 48.0199L120.393 48.7505C120.333 48.7621 120.272 48.7677 120.21 48.7671Z" fill="black"/>
<path d="M133.882 102.021C133.634 102.021 133.395 101.933 133.205 101.774C133.015 101.615 132.888 101.394 132.844 101.15L123.324 47.1653C123.299 47.029 123.302 46.8892 123.331 46.7539C123.361 46.6187 123.417 46.4906 123.497 46.3771C123.576 46.2637 123.677 46.167 123.794 46.0927C123.911 46.0184 124.041 45.968 124.178 45.9443C124.748 45.829 125.298 46.2264 125.399 46.7988L134.92 100.784C134.944 100.92 134.941 101.06 134.912 101.195C134.882 101.33 134.826 101.458 134.746 101.572C134.667 101.685 134.566 101.782 134.449 101.856C134.332 101.93 134.202 101.981 134.065 102.005C134.005 102.016 133.944 102.022 133.882 102.021Z" fill="black"/>
<path d="M129.727 102.754C129.48 102.754 129.24 102.666 129.05 102.507C128.861 102.348 128.734 102.127 128.691 101.883C128.643 101.608 128.706 101.325 128.866 101.096C129.026 100.867 129.271 100.711 129.546 100.662L133.698 99.9289C134.273 99.8134 134.819 100.211 134.92 100.783C134.944 100.92 134.941 101.06 134.911 101.195C134.882 101.33 134.825 101.458 134.746 101.571C134.667 101.685 134.566 101.781 134.449 101.856C134.332 101.93 134.202 101.981 134.065 102.005L129.912 102.738C129.851 102.749 129.789 102.754 129.727 102.754ZM73.5452 99.8137C73.2977 99.8135 73.0582 99.7261 72.8687 99.5668C72.6793 99.4075 72.5521 99.1866 72.5095 98.9428L67.3826 69.874C67.3583 69.7377 67.361 69.5979 67.3908 69.4626C67.4206 69.3274 67.4768 69.1994 67.5562 69.0859C67.6356 68.9724 67.7367 68.8758 67.8535 68.8015C67.9704 68.7272 68.1008 68.6767 68.2372 68.6529L89 64.9921C89.5661 64.8787 90.1201 65.274 90.2211 65.8464C90.2452 65.9827 90.2422 66.1224 90.2123 66.2575C90.1824 66.3927 90.1262 66.5206 90.0468 66.634C89.9674 66.7474 89.8665 66.844 89.7498 66.9184C89.6331 66.9928 89.5028 67.0434 89.3665 67.0675L69.6413 70.5448L74.4018 97.5384L94.1271 94.0609C94.7017 93.9435 95.2472 94.3427 95.3479 94.9152C95.372 95.0514 95.3691 95.1911 95.3392 95.3262C95.3093 95.4614 95.2531 95.5893 95.1737 95.7027C95.0944 95.816 94.9935 95.9127 94.8768 95.9871C94.7601 96.0615 94.6299 96.1122 94.4936 96.1362L73.7305 99.7971C73.6695 99.8087 73.6074 99.8143 73.5452 99.8137Z" fill="black"/>
<path d="M73.5473 99.8138C73.4756 99.8138 73.4033 99.8056 73.3313 99.7914L62.2178 97.4687C62.0116 97.4257 61.823 97.3219 61.6763 97.1707C61.5297 97.0194 61.4317 96.8277 61.3952 96.6202L57.7322 75.8574C57.6956 75.65 57.722 75.4364 57.8078 75.2441C57.8937 75.0518 58.0351 74.8896 58.214 74.7784L67.8646 68.7952C68.011 68.7045 68.1773 68.6511 68.3491 68.6396C68.5209 68.628 68.6929 68.6587 68.8501 68.729C69.0072 68.7992 69.1448 68.9069 69.2508 69.0426C69.3568 69.1783 69.4279 69.3379 69.458 69.5074L74.5851 98.5764C74.6149 98.746 74.603 98.9203 74.5502 99.0843C74.4975 99.2482 74.4055 99.3968 74.2824 99.5172C74.0846 99.707 73.8213 99.8132 73.5473 99.8138ZM63.3471 95.5518L72.24 97.4091L67.6526 71.4082L59.9323 76.193L63.3471 95.5518ZM93.5753 92.002C93.3277 92.002 93.0882 91.9146 92.8987 91.7553C92.7093 91.596 92.5821 91.375 92.5396 91.1311L88.8785 70.3662C88.8544 70.2299 88.8574 70.0902 88.8873 69.9551C88.9171 69.82 88.9734 69.6921 89.0527 69.5787C89.132 69.4653 89.2329 69.3686 89.3496 69.2942C89.4663 69.2198 89.5965 69.1692 89.7328 69.1451C90.3013 69.0317 90.8528 69.427 90.9538 69.9997L94.6149 90.7646C94.639 90.9009 94.636 91.0406 94.6061 91.1757C94.5762 91.3108 94.52 91.4387 94.4406 91.5521C94.3612 91.6654 94.2603 91.7621 94.1436 91.8364C94.0269 91.9108 93.8967 91.9614 93.7604 91.9854C93.6994 91.9971 93.6374 92.0026 93.5753 92.002Z" fill="black"/>
<path d="M63.6549 80.1506C63.4073 80.1503 63.1677 80.0628 62.9782 79.9035C62.7886 79.7443 62.6611 79.5233 62.6182 79.2795C62.5938 79.1432 62.5967 79.0034 62.6265 78.8682C62.6563 78.733 62.7125 78.605 62.7918 78.4916C62.8712 78.3782 62.9722 78.2815 63.089 78.2072C63.2058 78.1328 63.3361 78.0823 63.4725 78.0584L65.5499 77.6919C66.1245 77.5746 66.67 77.974 66.7707 78.5462C66.795 78.6825 66.7922 78.8222 66.7624 78.9574C66.7326 79.0926 66.6764 79.2206 66.5971 79.3341C66.5177 79.4475 66.4167 79.5442 66.2999 79.6185C66.1831 79.6928 66.0528 79.7434 65.9164 79.7673L63.839 80.134C63.7783 80.1457 63.7167 80.1512 63.6549 80.1506ZM65.8518 92.6076C65.6042 92.6072 65.3646 92.5197 65.1751 92.3605C64.9855 92.2012 64.8581 91.9802 64.8151 91.7364C64.7909 91.6001 64.7938 91.4604 64.8237 91.3253C64.8536 91.1901 64.9098 91.0622 64.9891 90.9488C65.0685 90.8354 65.1694 90.7387 65.2861 90.6643C65.4028 90.59 65.5331 90.5393 65.6694 90.5153L67.745 90.1488C68.3193 90.0294 68.8653 90.4307 68.9661 91.0031C68.9902 91.1394 68.9872 91.2791 68.9573 91.4143C68.9274 91.5494 68.8712 91.6773 68.7918 91.7907C68.7125 91.9041 68.6115 92.0008 68.4948 92.0752C68.3781 92.1495 68.2478 92.2002 68.1115 92.2242L66.0361 92.5909C65.9754 92.6026 65.9137 92.6081 65.8518 92.6076ZM64.7523 86.3767C64.5043 86.3763 64.2645 86.2885 64.0747 86.1289C63.8849 85.9693 63.7574 85.7479 63.7145 85.5037C63.6666 85.2285 63.7299 84.9456 63.8905 84.717C64.0511 84.4885 64.2958 84.333 64.5709 84.2847L66.6484 83.9204C67.2219 83.807 67.7677 84.2022 67.8692 84.7768C67.917 85.0519 67.8538 85.3349 67.6932 85.5634C67.5326 85.792 67.2879 85.9475 67.0128 85.9957L64.9353 86.3601C64.875 86.3718 64.8137 86.3773 64.7523 86.3767ZM70.3126 69.3406C70.0649 69.3404 69.8251 69.253 69.6354 69.0937C69.4456 68.9344 69.318 68.7134 69.2748 68.4695C69.2506 68.3332 69.2535 68.1935 69.2834 68.0583C69.3132 67.9232 69.3694 67.7953 69.4488 67.6819C69.5281 67.5685 69.6291 67.4718 69.7458 67.3975C69.8625 67.3232 69.9928 67.2726 70.1291 67.2486L74.2822 66.5156C74.8483 66.3983 75.4023 66.7975 75.5033 67.3699C75.5517 67.6452 75.4888 67.9283 75.3286 68.1573C75.1684 68.3862 74.9239 68.5422 74.6487 68.591L70.4959 69.324C70.4355 69.3357 70.3741 69.3413 70.3126 69.3406ZM101.877 126.933C101.682 126.933 101.49 126.879 101.323 126.776C101.157 126.674 101.022 126.527 100.934 126.352L91.0467 106.687C90.9841 106.563 90.9466 106.428 90.9362 106.29C90.9258 106.152 90.9428 106.014 90.9862 105.882C91.0296 105.751 91.0986 105.629 91.1892 105.525C91.2798 105.42 91.3901 105.334 91.514 105.272C91.6374 105.209 91.7721 105.172 91.9102 105.161C92.0483 105.151 92.1871 105.168 92.3186 105.211C92.4502 105.254 92.5718 105.323 92.6765 105.414C92.7812 105.505 92.8668 105.615 92.9286 105.739L102.82 125.405C102.945 125.655 102.965 125.944 102.877 126.209C102.789 126.474 102.6 126.693 102.351 126.819C102.204 126.894 102.042 126.933 101.877 126.933ZM91.4958 128.763C91.3002 128.763 91.1084 128.709 90.9418 128.607C90.7753 128.504 90.6405 128.357 90.5526 128.183L80.6654 108.517C80.6028 108.394 80.5652 108.259 80.5548 108.121C80.5444 107.983 80.5614 107.844 80.6048 107.713C80.6483 107.581 80.7172 107.46 80.8078 107.355C80.8984 107.251 81.0088 107.165 81.1327 107.103C81.6555 106.835 82.2878 107.051 82.547 107.57L92.4387 127.236C92.5633 127.486 92.5839 127.775 92.4959 128.04C92.4079 128.305 92.2185 128.524 91.9691 128.65C91.8227 128.725 91.6603 128.764 91.4958 128.763Z" fill="black"/>
<path d="M89.4201 129.13C89.1725 129.129 88.9329 129.042 88.7432 128.883C88.5534 128.724 88.4257 128.503 88.3823 128.259C88.3578 128.123 88.3605 127.983 88.3903 127.847C88.42 127.712 88.4762 127.584 88.5556 127.471C88.6351 127.357 88.7361 127.26 88.853 127.186C88.97 127.112 89.1004 127.061 89.2369 127.038L103.771 124.474C104.341 124.361 104.891 124.756 104.992 125.329C105.041 125.604 104.978 125.887 104.818 126.116C104.658 126.345 104.413 126.501 104.138 126.55L89.6034 129.113C89.543 129.125 89.4816 129.13 89.4201 129.13ZM76.7204 105.678C76.4727 105.678 76.233 105.59 76.0433 105.431C75.8536 105.272 75.7259 105.051 75.6826 104.807L75.2707 102.47C75.2462 102.334 75.2489 102.194 75.2787 102.059C75.3084 101.923 75.3646 101.795 75.444 101.682C75.5234 101.568 75.6245 101.472 75.7414 101.398C75.8584 101.323 75.9888 101.273 76.1253 101.249C76.6998 101.13 77.2453 101.531 77.3461 102.103L77.7579 104.44C77.7824 104.577 77.7797 104.717 77.75 104.852C77.7202 104.987 77.664 105.115 77.5846 105.229C77.5052 105.342 77.4041 105.439 77.2872 105.513C77.1703 105.587 77.0398 105.638 76.9034 105.661C76.8431 105.673 76.7818 105.679 76.7204 105.678Z" fill="black"/>
<path d="M76.7204 105.678C76.472 105.678 76.2315 105.59 76.0416 105.43C75.8517 105.27 75.7245 105.048 75.6826 104.803C75.6351 104.527 75.6988 104.244 75.8598 104.016C76.0207 103.787 76.2658 103.632 76.5411 103.584L95.241 100.353C95.8113 100.252 96.3589 100.64 96.4575 101.214C96.505 101.489 96.4413 101.773 96.2803 102.001C96.1194 102.23 95.8744 102.385 95.599 102.433L76.8992 105.664C76.8401 105.673 76.7803 105.678 76.7204 105.678Z" fill="black"/>
<path d="M95.4199 102.447C95.1723 102.447 94.9327 102.359 94.743 102.2C94.5533 102.041 94.4255 101.82 94.3821 101.576L94.0156 99.4985C93.9911 99.3622 93.9938 99.2223 94.0235 99.087C94.0533 98.9518 94.1095 98.8237 94.1889 98.7102C94.2683 98.5967 94.3694 98.5001 94.4863 98.4258C94.6032 98.3515 94.7337 98.3011 94.8701 98.2774C95.436 98.1622 95.9902 98.5595 96.0909 99.132L96.4575 101.209C96.4819 101.346 96.4793 101.486 96.4495 101.621C96.4198 101.756 96.3636 101.884 96.2842 101.998C96.2048 102.111 96.1038 102.208 95.9869 102.282C95.87 102.356 95.7396 102.407 95.6032 102.431C95.5428 102.442 95.4814 102.448 95.4199 102.447ZM5.36461 10.0868C4.78295 10.0868 4.30017 9.61539 4.30017 9.03268C4.30017 8.44996 4.76133 7.97852 5.34405 7.97852H5.36461C5.94733 7.97852 6.41877 8.44996 6.41877 9.03268C6.41877 9.61539 5.94733 10.0868 5.36461 10.0868ZM9.58152 10.0868C8.99986 10.0868 8.51707 9.61539 8.51707 9.03268C8.51707 8.44996 8.97824 7.97852 9.56095 7.97852H9.58152C10.1642 7.97852 10.6357 8.44996 10.6357 9.03268C10.6357 9.61539 10.1642 10.0868 9.58152 10.0868ZM13.7984 10.0868C13.2168 10.0868 12.734 9.61539 12.734 9.03268C12.734 8.44996 13.1951 7.97852 13.7779 7.97852H13.7984C14.3811 7.97852 14.8526 8.44996 14.8526 9.03268C14.8526 9.61539 14.3811 10.0868 13.7984 10.0868Z" fill="black"/>
<path d="M133.915 12.1956H1.08504C0.946581 12.1957 0.809455 12.1685 0.681512 12.1155C0.553568 12.0626 0.437317 11.985 0.339408 11.887C0.2415 11.7891 0.163855 11.6729 0.110915 11.5449C0.0579757 11.417 0.0307801 11.2799 0.0308841 11.1414V9.03309C0.0308841 7.28916 1.44944 5.87061 3.19336 5.87061H131.806C133.55 5.87061 134.969 7.28916 134.969 9.03309V11.1414C134.969 11.2799 134.942 11.417 134.889 11.5449C134.836 11.6729 134.758 11.7891 134.661 11.887C134.563 11.9849 134.446 12.0626 134.319 12.1155C134.191 12.1685 134.053 12.1957 133.915 12.1956ZM2.1392 10.0872H132.861V9.03309C132.86 8.75368 132.749 8.48587 132.551 8.2883C132.354 8.09073 132.086 7.97948 131.806 7.97893H3.19336C2.91389 7.97927 2.64596 8.09045 2.44835 8.28807C2.25073 8.48569 2.13955 8.75361 2.1392 9.03309V10.0872Z" fill="black"/>
<path d="M133.915 62.7952C133.777 62.7953 133.639 62.768 133.511 62.7151C133.384 62.6621 133.267 62.5844 133.169 62.4865C133.071 62.3886 132.994 62.2723 132.941 62.1443C132.888 62.0164 132.861 61.8792 132.861 61.7408V11.1411C132.861 10.5584 133.332 10.0869 133.915 10.0869C134.498 10.0869 134.969 10.5584 134.969 11.1411V61.7408C134.969 61.8792 134.942 62.0164 134.889 62.1443C134.836 62.2723 134.759 62.3886 134.661 62.4865C134.563 62.5844 134.447 62.6621 134.319 62.7151C134.191 62.768 134.053 62.7953 133.915 62.7952ZM1.08504 96.5296C0.946581 96.5297 0.809455 96.5025 0.681512 96.4496C0.553568 96.3967 0.437317 96.319 0.339408 96.2211C0.2415 96.1232 0.163855 96.0069 0.110915 95.879C0.0579757 95.7511 0.0307801 95.6139 0.0308841 95.4755V11.1411C0.0308841 10.5584 0.502329 10.0869 1.08504 10.0869C1.66776 10.0869 2.1392 10.5584 2.1392 11.1411V95.4755C2.13931 95.6139 2.11211 95.7511 2.05917 95.879C2.00623 96.0069 1.92859 96.1232 1.83068 96.2211C1.73277 96.319 1.61652 96.3967 1.48858 96.4496C1.36063 96.5025 1.22351 96.5297 1.08504 96.5296Z" fill="black"/>
<path d="M55.904 96.5299H1.08504C0.502329 96.5299 0.0308838 96.0585 0.0308838 95.4757C0.0308838 94.893 0.502329 94.4216 1.08504 94.4216H55.9037C56.4862 94.4216 56.9579 94.893 56.9579 95.4757C56.9579 96.0585 56.4865 96.5299 55.904 96.5299ZM39.0377 67.0121C38.8554 67.0122 38.6762 66.965 38.5175 66.8752C38.3589 66.7853 38.2262 66.6559 38.1325 66.4995L32.7112 57.4645L27.2901 66.4995C27.2192 66.6187 27.1255 66.7226 27.0143 66.8054C26.9031 66.8881 26.7767 66.9481 26.6422 66.9817C26.5078 67.0154 26.368 67.0222 26.2309 67.0016C26.0938 66.981 25.9622 66.9335 25.8436 66.8618C25.7249 66.7907 25.6213 66.6969 25.5389 66.5858C25.4565 66.4747 25.3968 66.3484 25.3632 66.2141C25.3297 66.0799 25.3229 65.9404 25.3434 65.8035C25.3638 65.6667 25.411 65.5352 25.4823 65.4166L31.8076 54.8748C32.1886 54.2364 33.2346 54.2364 33.6153 54.8748L39.9405 65.4166C40.0118 65.5352 40.0589 65.6667 40.0793 65.8035C40.0997 65.9404 40.093 66.0799 40.0594 66.2141C40.0259 66.3483 39.9662 66.4746 39.8838 66.5857C39.8014 66.6969 39.698 66.7907 39.5793 66.8618C39.416 66.9606 39.2286 67.0126 39.0377 67.0121Z" fill="black"/>
<path d="M20.0596 67.0122C19.8688 67.0121 19.6816 66.9603 19.518 66.8622C19.3543 66.7641 19.2204 66.6234 19.1305 66.4551C19.0406 66.2869 18.998 66.0974 19.0074 65.9068C19.0167 65.7162 19.0777 65.5318 19.1837 65.3732L23.4006 59.0479C23.4971 58.9037 23.6275 58.7855 23.7805 58.7037C23.9335 58.6218 24.1043 58.5789 24.2778 58.5786C24.6309 58.5786 24.9594 58.7558 25.1548 59.0479L26.558 61.1542C26.713 61.3868 26.7693 61.6716 26.7145 61.9457C26.6596 62.2199 26.4982 62.461 26.2656 62.6162C25.7786 62.9353 25.125 62.8058 24.8038 62.3238L24.2778 61.5333L20.9381 66.5428C20.8418 66.6874 20.7111 66.806 20.5578 66.8879C20.4045 66.9697 20.2334 67.0125 20.0596 67.0122Z" fill="black"/>
<path d="M125.481 39.6027H9.51876C9.3803 39.6028 9.24317 39.5756 9.11523 39.5226C8.98728 39.4697 8.87103 39.392 8.77312 39.2941C8.67522 39.1962 8.59757 39.08 8.54463 38.952C8.49169 38.8241 8.4645 38.687 8.4646 38.5485V19.5747C8.4645 19.4362 8.49169 19.2991 8.54463 19.1711C8.59757 19.0432 8.67522 18.9269 8.77312 18.829C8.87103 18.7311 8.98728 18.6535 9.11523 18.6005C9.24317 18.5476 9.3803 18.5204 9.51876 18.5205H125.481C125.62 18.5204 125.757 18.5476 125.885 18.6005C126.013 18.6535 126.129 18.7311 126.227 18.829C126.325 18.9269 126.403 19.0432 126.456 19.1711C126.508 19.2991 126.536 19.4362 126.536 19.5747V38.5485C126.536 38.687 126.508 38.8241 126.455 38.952C126.402 39.0799 126.325 39.1962 126.227 39.2941C126.129 39.392 126.013 39.4696 125.885 39.5226C125.757 39.5755 125.62 39.6027 125.481 39.6027ZM10.5729 37.4941H124.427V20.6288H10.5729V37.4941Z" fill="black"/>
<path d="M43.2532 69.1205H9.51876C9.3803 69.1206 9.24317 69.0934 9.11523 69.0405C8.98728 68.9876 8.87103 68.9099 8.77312 68.812C8.67522 68.7141 8.59757 68.5979 8.54463 68.4699C8.49169 68.342 8.4645 68.2048 8.4646 68.0664V46.9824C8.4645 46.8439 8.49169 46.7068 8.54463 46.5789C8.59757 46.4509 8.67522 46.3347 8.77312 46.2367C8.87103 46.1388 8.98728 46.0612 9.11523 46.0083C9.24317 45.9553 9.3803 45.9281 9.51876 45.9282H43.2532C43.3917 45.9281 43.5288 45.9553 43.6567 46.0083C43.7847 46.0612 43.9009 46.1388 43.9988 46.2367C44.0967 46.3347 44.1744 46.4509 44.2273 46.5789C44.2803 46.7068 44.3075 46.8439 44.3074 46.9824V68.0664C44.3074 68.2048 44.2802 68.3419 44.2273 68.4699C44.1743 68.5978 44.0967 68.714 43.9988 68.8119C43.9009 68.9098 43.7846 68.9875 43.6567 69.0404C43.5288 69.0934 43.3917 69.1206 43.2532 69.1205ZM10.5729 67.012H42.199V48.0363H10.5729V67.012Z" fill="black"/>
<path d="M15.7275 56.4702C13.9836 56.4702 12.5651 55.0514 12.5651 53.3075C12.5651 51.5636 13.9836 50.145 15.7275 50.145C17.4715 50.145 18.8903 51.5636 18.8903 53.3075C18.8903 55.0514 17.4717 56.4702 15.7275 56.4702ZM15.7275 52.2533C15.1459 52.2533 14.6734 52.7269 14.6734 53.3075C14.6734 53.8881 15.1459 54.3619 15.7275 54.3619C16.3092 54.3619 16.7817 53.8881 16.7817 53.3075C16.7817 52.7269 16.3092 52.2533 15.7275 52.2533Z" fill="black"/>
<path d="M113.885 29.0605H21.1151C20.5324 29.0605 20.0607 28.589 20.0607 28.0063C20.0607 27.4236 20.5324 26.9521 21.1151 26.9521H113.885C114.468 26.9521 114.939 27.4236 114.939 28.0063C114.939 28.589 114.468 29.0605 113.885 29.0605Z" fill="black"/>
<path d="M101.234 33.2773H33.7656C33.1829 33.2773 32.7114 32.8058 32.7114 32.2231C32.7114 31.6404 33.1829 31.1689 33.7656 31.1689H101.235C101.817 31.1689 102.289 31.6404 102.289 32.2231C102.289 32.8058 101.817 33.2773 101.234 33.2773Z" fill="black"/>
<path d="M43.2532 75.4457H9.51876C8.93605 75.4457 8.4646 74.9743 8.4646 74.3916C8.4646 73.8088 8.93605 73.3374 9.51876 73.3374H43.2532C43.8359 73.3374 44.3074 73.8088 44.3074 74.3916C44.3074 74.9743 43.8359 75.4457 43.2532 75.4457Z" fill="black"/>
<path d="M43.2532 81.7712H9.51876C9.38028 81.7712 9.24315 81.744 9.11521 81.691C8.98726 81.6381 8.87101 81.5604 8.77311 81.4625C8.6752 81.3646 8.59756 81.2483 8.54463 81.1203C8.49169 80.9924 8.4645 80.8552 8.4646 80.7168C8.46453 80.5783 8.49175 80.4412 8.5447 80.3133C8.59765 80.1853 8.6753 80.0691 8.7732 79.9712C8.8711 79.8733 8.98734 79.7956 9.11527 79.7427C9.2432 79.6897 9.38031 79.6625 9.51876 79.6626H43.2532C43.3917 79.6625 43.5288 79.6897 43.6567 79.7427C43.7846 79.7956 43.9009 79.8733 43.9988 79.9712C44.0967 80.0691 44.1743 80.1853 44.2273 80.3133C44.2802 80.4412 44.3074 80.5783 44.3074 80.7168C44.3075 80.8552 44.2803 80.9924 44.2273 81.1203C44.1744 81.2483 44.0968 81.3646 43.9989 81.4625C43.9009 81.5604 43.7847 81.6381 43.6568 81.691C43.5288 81.744 43.3917 81.7712 43.2532 81.7712Z" fill="black"/>
<path d="M26.3859 88.0964H9.51876C8.93605 88.0964 8.4646 87.6247 8.4646 87.042C8.4646 86.4592 8.93605 85.9878 9.51876 85.9878H26.3861C26.9688 85.9878 27.4403 86.4592 27.4403 87.042C27.4403 87.6247 26.9686 88.0964 26.3859 88.0964Z" fill="black"/>
<path d="M70.6625 63.4974C70.476 63.4975 70.2928 63.4481 70.1317 63.3543C69.9705 63.2604 69.8372 63.1255 69.7453 62.9632C69.6533 62.801 69.6061 62.6172 69.6085 62.4307C69.6108 62.2443 69.6626 62.0618 69.7586 61.9019L73.9752 54.8748C74.3563 54.2364 75.4022 54.2364 75.783 54.8748L78.3198 59.1017C78.4633 59.3412 78.506 59.6279 78.4385 59.8989C78.371 60.1698 78.1988 60.403 77.9596 60.5471C77.8408 60.6184 77.709 60.6656 77.5719 60.686C77.4349 60.7064 77.2951 60.6995 77.1607 60.6659C77.0262 60.6322 76.8998 60.5724 76.7885 60.4898C76.6772 60.4072 76.5832 60.3035 76.512 60.1846L74.8794 57.4648L71.5666 62.985C71.4731 63.1414 71.3407 63.2708 71.1822 63.3606C71.0237 63.4504 70.8446 63.4975 70.6625 63.4974Z" fill="black"/>
<path d="M62.2279 67.0122C62.0371 67.0122 61.8499 66.9604 61.6862 66.8623C61.5226 66.7642 61.3886 66.6235 61.2986 66.4553C61.2087 66.287 61.1661 66.0974 61.1755 65.9069C61.1848 65.7163 61.2458 65.5318 61.3518 65.3732L65.5687 59.0479C65.6651 58.9037 65.7956 58.7855 65.9486 58.7037C66.1016 58.6218 66.2724 58.5789 66.4459 58.5786C66.799 58.5786 67.1275 58.7558 67.3229 59.0479L68.7261 61.1542C68.8811 61.3868 68.9374 61.6716 68.8826 61.9457C68.8277 62.2199 68.6663 62.461 68.4337 62.6162C67.9467 62.9353 67.2931 62.8058 66.9719 62.3238L66.4459 61.5333L63.1062 66.5428C63.0099 66.6874 62.8793 66.806 62.7261 66.8879C62.5728 66.9698 62.4017 67.0125 62.2279 67.0122Z" fill="black"/>
<path d="M58.0123 69.1205H51.6871C51.5486 69.1206 51.4115 69.0934 51.2836 69.0405C51.1556 68.9876 51.0394 68.9099 50.9415 68.812C50.8436 68.7141 50.7659 68.5979 50.713 68.4699C50.66 68.342 50.6328 68.2048 50.6329 68.0664V46.9824C50.6328 46.8439 50.66 46.7068 50.713 46.5789C50.7659 46.4509 50.8436 46.3347 50.9415 46.2367C51.0394 46.1388 51.1556 46.0612 51.2836 46.0083C51.4115 45.9553 51.5486 45.9281 51.6871 45.9282H85.4215C85.56 45.9281 85.6971 45.9553 85.8251 46.0083C85.953 46.0612 86.0693 46.1388 86.1672 46.2367C86.2651 46.3347 86.3427 46.4509 86.3957 46.5789C86.4486 46.7068 86.4758 46.8439 86.4757 46.9824V59.6307C86.4757 60.2134 86.0043 60.6849 85.4215 60.6849C84.8388 60.6849 84.3674 60.2134 84.3674 59.6307V48.0365H52.741V67.0122H58.0121C58.5948 67.0122 59.0662 67.4837 59.0662 68.0664C59.0662 68.6491 58.595 69.1205 58.0123 69.1205Z" fill="black"/>
<path d="M57.8958 56.4702C56.1518 56.4702 54.7333 55.0514 54.7333 53.3075C54.7333 51.5636 56.1518 50.145 57.8958 50.145C59.6397 50.145 61.0585 51.5636 61.0585 53.3075C61.0585 55.0514 59.6397 56.4702 57.8958 56.4702ZM57.8958 52.2533C57.3141 52.2533 56.8416 52.7269 56.8416 53.3075C56.8416 53.8881 57.3141 54.3619 57.8958 54.3619C58.4774 54.3619 58.9499 53.8881 58.9499 53.3075C58.9499 52.7269 58.4774 52.2533 57.8958 52.2533Z" fill="black"/>
<path d="M53.7954 75.4457H51.6868C51.1041 75.4457 50.6327 74.9743 50.6327 74.3916C50.6327 73.8088 51.1041 73.3374 51.6868 73.3374H53.7954C54.3779 73.3374 54.8496 73.8088 54.8496 74.3916C54.8496 74.9743 54.3779 75.4457 53.7954 75.4457Z" fill="black"/>
<path d="M53.7954 81.7712H51.6868C51.5484 81.7712 51.4112 81.744 51.2833 81.691C51.1554 81.6381 51.0391 81.5604 50.9412 81.4625C50.8433 81.3646 50.7657 81.2483 50.7127 81.1203C50.6598 80.9924 50.6326 80.8552 50.6327 80.7168C50.6326 80.5783 50.6598 80.4412 50.7128 80.3133C50.7657 80.1853 50.8434 80.0691 50.9413 79.9712C51.0392 79.8733 51.1554 79.7956 51.2834 79.7427C51.4113 79.6897 51.5484 79.6625 51.6868 79.6626H53.7954C53.9339 79.6626 54.071 79.6898 54.1989 79.7428C54.3268 79.7957 54.443 79.8734 54.5409 79.9713C54.6388 80.0692 54.7165 80.1854 54.7694 80.3133C54.8224 80.4412 54.8496 80.5783 54.8496 80.7168C54.8497 80.8552 54.8225 80.9924 54.7696 81.1203C54.7166 81.2483 54.639 81.3646 54.5411 81.4625C54.4432 81.5604 54.3269 81.6381 54.199 81.691C54.071 81.744 53.9339 81.7712 53.7954 81.7712Z" fill="black"/>
<path d="M55.904 88.0964H51.6871C51.1044 88.0964 50.6329 87.6247 50.6329 87.042C50.6329 86.4592 51.1044 85.9878 51.6871 85.9878H55.904C56.4864 85.9878 56.9582 86.4592 56.9582 87.042C56.9582 87.6247 56.4864 88.0964 55.904 88.0964Z" fill="black"/>
<path d="M93.8551 60.6844C93.7166 60.6845 93.5795 60.6573 93.4515 60.6044C93.3236 60.5514 93.2073 60.4738 93.1094 60.3759C93.0115 60.278 92.9339 60.1617 92.8809 60.0338C92.828 59.9058 92.8008 59.7687 92.8009 59.6302V46.9819C92.8008 46.8434 92.828 46.7063 92.8809 46.5784C92.9339 46.4504 93.0115 46.3342 93.1094 46.2363C93.2073 46.1383 93.3236 46.0607 93.4515 46.0078C93.5795 45.9548 93.7166 45.9276 93.8551 45.9277H114.939C115.522 45.9277 115.993 46.3992 115.993 46.9819C115.993 47.5646 115.522 48.0361 114.939 48.0361H94.9092V59.6302C94.9093 59.7687 94.8821 59.9058 94.8292 60.0338C94.7763 60.1617 94.6986 60.278 94.6007 60.3759C94.5028 60.4738 94.3865 60.5514 94.2586 60.6044C94.1307 60.6573 93.9935 60.6845 93.8551 60.6844Z" fill="black"/>
<path d="M100.065 56.4702C98.3211 56.4702 96.9026 55.0514 96.9026 53.3075C96.9026 51.5636 98.3211 50.145 100.065 50.145C101.809 50.145 103.228 51.5636 103.228 53.3075C103.228 55.0514 101.809 56.4702 100.065 56.4702ZM100.065 52.2533C99.4845 52.2533 99.0109 52.7269 99.0109 53.3075C99.0109 53.8881 99.4845 54.3619 100.065 54.3619C100.646 54.3619 101.119 53.8881 101.119 53.3075C101.119 52.7269 100.646 52.2533 100.065 52.2533Z" fill="black"/>
</svg>
