<svg width="116" height="115" viewBox="0 0 116 115" fill="none" xmlns="http://www.w3.org/2000/svg">
<path d="M115.077 77.2454H0.923907C0.80492 77.2455 0.687083 77.2223 0.577133 77.1773C0.467184 77.1322 0.367279 77.066 0.283132 76.9826C0.198986 76.8992 0.132247 76.8002 0.0867334 76.6912C0.0412198 76.5822 0.0178238 76.4654 0.0178834 76.3474C0.0178239 76.2295 0.0412182 76.1126 0.086729 76.0036C0.13224 75.8946 0.198975 75.7956 0.283119 75.7122C0.367263 75.6287 0.467166 75.5626 0.577116 75.5175C0.687067 75.4724 0.804909 75.4492 0.923907 75.4492H115.077C115.196 75.4492 115.313 75.4724 115.423 75.5175C115.533 75.5626 115.633 75.6288 115.717 75.7122C115.801 75.7956 115.868 75.8946 115.914 76.0036C115.959 76.1126 115.982 76.2295 115.982 76.3474C115.982 76.4654 115.959 76.5822 115.913 76.6912C115.868 76.8001 115.801 76.8991 115.717 76.9825C115.633 77.0659 115.533 77.1321 115.423 77.1772C115.313 77.2223 115.195 77.2455 115.077 77.2454ZM58 86.2237C56.0022 86.2237 54.3761 84.6133 54.3761 82.6311C54.3761 80.6489 56.0022 79.0385 58 79.0385C59.9978 79.0385 61.6241 80.6489 61.6241 82.6311C61.6241 84.6133 59.9978 86.2237 58 86.2237ZM58 80.8349C57.0002 80.8349 56.1879 81.6417 56.1879 82.6311C56.1879 83.6205 57.0002 84.4273 58 84.4273C58.9996 84.4273 59.812 83.6205 59.812 82.6311C59.812 81.6417 58.9996 80.8349 58 80.8349ZM42.6091 109.579C42.4736 109.579 42.3398 109.549 42.2176 109.49C42.0954 109.432 41.9879 109.348 41.903 109.243C41.8181 109.138 41.758 109.016 41.7271 108.885C41.6962 108.754 41.6953 108.618 41.7244 108.487L45.3483 92.3196C45.4564 91.8372 45.9376 91.5353 46.4294 91.637C46.6639 91.689 46.868 91.831 46.9971 92.0319C47.1262 92.2328 47.1696 92.4763 47.118 92.7089L43.4941 108.876C43.4493 109.075 43.3372 109.254 43.1763 109.382C43.0154 109.51 42.8154 109.579 42.6091 109.579ZM73.3908 109.579C73.1847 109.579 72.9847 109.51 72.8239 109.382C72.6631 109.254 72.5511 109.075 72.5063 108.876L68.8827 92.7089C68.8309 92.4763 68.8742 92.2329 69.0032 92.0319C69.1322 91.831 69.3363 91.689 69.5708 91.637C70.0665 91.5353 70.5438 91.8372 70.6517 92.3196L74.2758 108.487C74.3049 108.618 74.304 108.754 74.2731 108.885C74.2422 109.016 74.1821 109.138 74.0972 109.243C74.0123 109.348 73.9048 109.432 73.7825 109.491C73.6603 109.549 73.5264 109.579 73.3908 109.579Z" fill="black"/>
<path d="M76.1198 109.579H39.8807C39.7617 109.579 39.6438 109.556 39.5338 109.511C39.4239 109.466 39.324 109.4 39.2398 109.316C39.1557 109.233 39.0889 109.134 39.0434 109.025C38.9979 108.916 38.9745 108.799 38.9746 108.681C38.9746 108.563 38.998 108.446 39.0435 108.337C39.089 108.228 39.1557 108.129 39.2399 108.046C39.324 107.962 39.4239 107.896 39.5339 107.851C39.6438 107.806 39.7617 107.783 39.8807 107.783H76.1198C76.2388 107.783 76.3566 107.806 76.4665 107.851C76.5764 107.896 76.6763 107.963 76.7604 108.046C76.8445 108.129 76.9113 108.228 76.9568 108.337C77.0023 108.446 77.0257 108.563 77.0256 108.681C77.0257 108.799 77.0023 108.916 76.9568 109.025C76.9113 109.134 76.8446 109.233 76.7605 109.316C76.6764 109.4 76.5765 109.466 76.4665 109.511C76.3566 109.556 76.2388 109.579 76.1198 109.579ZM109.64 71.8847H6.35961C6.24061 71.8847 6.12277 71.8615 6.01282 71.8164C5.90286 71.7713 5.80296 71.7051 5.71882 71.6217C5.63467 71.5383 5.56794 71.4393 5.52243 71.3303C5.47692 71.2213 5.45352 71.1044 5.45358 70.9865V11.7078C5.45352 11.5898 5.47692 11.473 5.52243 11.364C5.56794 11.255 5.63467 11.1559 5.71882 11.0725C5.80296 10.9891 5.90286 10.9229 6.01282 10.8778C6.12277 10.8327 6.24061 10.8095 6.35961 10.8096H109.64C110.141 10.8096 110.547 11.2114 110.547 11.7078V70.9865C110.547 71.1045 110.523 71.2213 110.478 71.3303C110.432 71.4393 110.365 71.5384 110.281 71.6218C110.197 71.7052 110.097 71.7714 109.987 71.8165C109.877 71.8616 109.759 71.8848 109.64 71.8847ZM7.26563 70.0883H108.735V12.606H7.26563V70.0883Z" fill="black"/>
<path d="M109.64 89.8482H6.35959C2.86306 89.8482 0.0178833 87.0273 0.0178833 83.5612V11.7079C0.0178833 8.24154 2.86328 5.4209 6.35959 5.4209H109.64C113.137 5.4209 115.982 8.24177 115.982 11.7079V83.5609C115.982 87.0273 113.137 89.8482 109.64 89.8482ZM6.35959 7.2171C3.86106 7.2171 1.8297 9.23185 1.8297 11.7079V83.5609C1.8297 86.0377 3.86106 88.0515 6.35959 88.0515H109.64C112.139 88.0515 114.17 86.0377 114.17 83.5609V11.7079C114.17 9.23185 112.139 7.2171 109.64 7.2171H6.35959Z" fill="black"/>
<path d="M109.64 93.4126H6.35959C2.80302 93.4126 0.0178834 90.6515 0.0178834 87.1255V83.5329C0.0178239 83.4149 0.0412182 83.2981 0.086729 83.1891C0.13224 83.0801 0.198975 82.9811 0.283119 82.8977C0.367263 82.8142 0.467166 82.7481 0.577116 82.7029C0.687067 82.6578 0.804909 82.6346 0.923907 82.6347C1.0429 82.6346 1.16075 82.6578 1.2707 82.7029C1.38065 82.7481 1.48055 82.8142 1.5647 82.8977C1.64884 82.9811 1.71557 83.0801 1.76108 83.1891C1.8066 83.2981 1.82999 83.4149 1.82993 83.5329V87.1255C1.82993 89.6445 3.81892 91.6161 6.35982 91.6161H109.641C112.182 91.6161 114.17 89.6445 114.17 87.1255V83.561C114.17 83.443 114.194 83.3262 114.239 83.2171C114.285 83.1081 114.352 83.0091 114.436 82.9256C114.52 82.8422 114.62 82.7761 114.73 82.731C114.84 82.6859 114.958 82.6627 115.077 82.6628C115.196 82.6627 115.314 82.6859 115.424 82.731C115.533 82.7762 115.633 82.8423 115.717 82.9257C115.802 83.0092 115.868 83.1082 115.914 83.2172C115.959 83.3262 115.983 83.443 115.983 83.561V87.1255C115.982 90.6515 113.197 93.4126 109.64 93.4126ZM9.98346 71.8847C9.86446 71.8847 9.74662 71.8615 9.63667 71.8164C9.52672 71.7713 9.42682 71.7051 9.34267 71.6217C9.25853 71.5383 9.1918 71.4393 9.14628 71.3303C9.10077 71.2213 9.07738 71.1044 9.07744 70.9865V11.7078C9.07738 11.5898 9.10077 11.473 9.14628 11.364C9.1918 11.255 9.25853 11.1559 9.34267 11.0725C9.42682 10.9891 9.52672 10.9229 9.63667 10.8778C9.74662 10.8327 9.86446 10.8095 9.98346 10.8096C10.1025 10.8095 10.2203 10.8327 10.3303 10.8778C10.4402 10.9229 10.5401 10.9891 10.6243 11.0725C10.7084 11.1559 10.7751 11.255 10.8206 11.364C10.8662 11.473 10.8895 11.5898 10.8895 11.7078V70.9865C10.8895 71.1044 10.8662 71.2213 10.8206 71.3303C10.7751 71.4393 10.7084 71.5383 10.6243 71.6217C10.5401 71.7051 10.4402 71.7713 10.3303 71.8164C10.2203 71.8615 10.1025 71.8847 9.98346 71.8847Z" fill="black"/>
<path d="M8.17165 17.9947H6.35961C5.8589 17.9947 5.45358 17.5931 5.45358 17.0965C5.45358 16.5998 5.8589 16.1982 6.35961 16.1982H8.17165C8.67236 16.1982 9.07768 16.5998 9.07768 17.0965C9.07768 17.5931 8.67236 17.9947 8.17165 17.9947ZM8.17165 23.3837H6.35961C5.8589 23.3837 5.45358 22.9819 5.45358 22.4855C5.45358 21.9891 5.8589 21.5873 6.35961 21.5873H8.17165C8.67236 21.5873 9.07768 21.9891 9.07768 22.4855C9.07768 22.9819 8.67236 23.3837 8.17165 23.3837ZM8.17165 28.7728H6.35961C5.8589 28.7728 5.45358 28.3712 5.45358 27.8746C5.45358 27.3779 5.8589 26.9763 6.35961 26.9763H8.17165C8.67236 26.9763 9.07768 27.3779 9.07768 27.8746C9.07768 28.3712 8.67236 28.7728 8.17165 28.7728ZM8.17165 34.1618H6.35961C5.8589 34.1618 5.45358 33.76 5.45358 33.2636C5.45358 32.7672 5.8589 32.3654 6.35961 32.3654H8.17165C8.67236 32.3654 9.07768 32.7672 9.07768 33.2636C9.07768 33.76 8.67236 34.1618 8.17165 34.1618ZM8.17165 39.5507H6.35961C5.8589 39.5507 5.45358 39.1491 5.45358 38.6524C5.45358 38.1558 5.8589 37.7542 6.35961 37.7542H8.17165C8.67236 37.7542 9.07768 38.1558 9.07768 38.6524C9.07768 39.1491 8.67236 39.5507 8.17165 39.5507ZM8.17165 44.9397H6.35961C6.24061 44.9398 6.12277 44.9166 6.01282 44.8715C5.90286 44.8263 5.80296 44.7602 5.71882 44.6768C5.63467 44.5933 5.56794 44.4943 5.52243 44.3853C5.47692 44.2763 5.45352 44.1595 5.45358 44.0415C5.45352 43.9235 5.47692 43.8067 5.52243 43.6977C5.56794 43.5887 5.63467 43.4897 5.71882 43.4062C5.80296 43.3228 5.90286 43.2567 6.01282 43.2115C6.12277 43.1664 6.24061 43.1432 6.35961 43.1433H8.17165C8.29065 43.1432 8.40849 43.1664 8.51844 43.2115C8.6284 43.2567 8.7283 43.3228 8.81244 43.4062C8.89659 43.4897 8.96332 43.5887 9.00883 43.6977C9.05434 43.8067 9.07774 43.9235 9.07768 44.0415C9.07771 44.1595 9.05429 44.2763 9.00877 44.3853C8.96325 44.4943 8.89651 44.5933 8.81237 44.6767C8.72824 44.7601 8.62835 44.8263 8.51841 44.8714C8.40847 44.9165 8.29064 44.9397 8.17165 44.9397ZM8.17165 50.3285H6.35961C6.24061 50.3286 6.12277 50.3054 6.01282 50.2603C5.90286 50.2152 5.80296 50.149 5.71882 50.0656C5.63467 49.9822 5.56794 49.8831 5.52243 49.7741C5.47692 49.6651 5.45352 49.5483 5.45358 49.4303C5.45352 49.3124 5.47692 49.1955 5.52243 49.0865C5.56794 48.9775 5.63467 48.8785 5.71882 48.7951C5.80296 48.7116 5.90286 48.6455 6.01282 48.6004C6.12277 48.5552 6.24061 48.5321 6.35961 48.5321H8.17165C8.29065 48.5321 8.40849 48.5552 8.51844 48.6004C8.6284 48.6455 8.7283 48.7116 8.81244 48.7951C8.89659 48.8785 8.96332 48.9775 9.00883 49.0865C9.05434 49.1955 9.07774 49.3124 9.07768 49.4303C9.07774 49.5483 9.05434 49.6651 9.00883 49.7741C8.96332 49.8831 8.89659 49.9822 8.81244 50.0656C8.7283 50.149 8.6284 50.2152 8.51844 50.2603C8.40849 50.3054 8.29065 50.3286 8.17165 50.3285ZM8.17165 55.7176H6.35961C6.24061 55.7176 6.12277 55.6945 6.01282 55.6493C5.90286 55.6042 5.80296 55.5381 5.71882 55.4546C5.63467 55.3712 5.56794 55.2722 5.52243 55.1632C5.47692 55.0542 5.45352 54.9373 5.45358 54.8194C5.45352 54.7014 5.47692 54.5846 5.52243 54.4756C5.56794 54.3666 5.63467 54.2675 5.71882 54.1841C5.80296 54.1007 5.90286 54.0345 6.01282 53.9894C6.12277 53.9443 6.24061 53.9211 6.35961 53.9212H8.17165C8.29065 53.9211 8.40849 53.9443 8.51844 53.9894C8.6284 54.0345 8.7283 54.1007 8.81244 54.1841C8.89659 54.2675 8.96332 54.3666 9.00883 54.4756C9.05434 54.5846 9.07774 54.7014 9.07768 54.8194C9.07771 54.9373 9.05429 55.0542 9.00877 55.1631C8.96325 55.2721 8.89651 55.3712 8.81237 55.4546C8.72824 55.538 8.62835 55.6041 8.51841 55.6493C8.40847 55.6944 8.29064 55.7176 8.17165 55.7176ZM8.17165 61.1066H6.35961C6.24061 61.1067 6.12277 61.0835 6.01282 61.0384C5.90286 60.9933 5.80296 60.9271 5.71882 60.8437C5.63467 60.7603 5.56794 60.6612 5.52243 60.5522C5.47692 60.4432 5.45352 60.3264 5.45358 60.2084C5.45352 60.0905 5.47692 59.9737 5.52243 59.8647C5.56795 59.7557 5.63469 59.6566 5.71883 59.5732C5.80298 59.4898 5.90288 59.4237 6.01283 59.3786C6.12278 59.3335 6.24062 59.3104 6.35961 59.3104H8.17165C8.29064 59.3104 8.40848 59.3335 8.51843 59.3786C8.62838 59.4237 8.72828 59.4898 8.81243 59.5732C8.89657 59.6566 8.96331 59.7557 9.00883 59.8647C9.05434 59.9737 9.07774 60.0905 9.07768 60.2084C9.07774 60.3264 9.05434 60.4432 9.00883 60.5522C8.96332 60.6612 8.89659 60.7603 8.81244 60.8437C8.7283 60.9271 8.6284 60.9933 8.51844 61.0384C8.40849 61.0835 8.29065 61.1067 8.17165 61.1066ZM8.17165 66.4957H6.35961C5.8589 66.4957 5.45358 66.0939 5.45358 65.5975C5.45358 65.1011 5.8589 64.6993 6.35961 64.6993H8.17165C8.67236 64.6993 9.07768 65.1011 9.07768 65.5975C9.07768 66.0939 8.67236 66.4957 8.17165 66.4957ZM22.6671 17.9947H15.4194C14.9187 17.9947 14.5134 17.5931 14.5134 17.0965C14.5134 16.5998 14.9185 16.1982 15.4194 16.1982H22.6671C23.1678 16.1982 23.5731 16.5998 23.5731 17.0965C23.5731 17.5931 23.1678 17.9947 22.6671 17.9947ZM51.6581 23.3837H29.9149C29.4142 23.3837 29.0088 22.9819 29.0088 22.4855C29.0088 21.9891 29.4139 21.5873 29.9149 21.5873H51.6581C52.159 21.5873 52.5641 21.9891 52.5641 22.4855C52.5641 22.9819 52.159 23.3837 51.6581 23.3837ZM26.291 23.3837H17.2312C16.7305 23.3837 16.3252 22.9819 16.3252 22.4855C16.3252 21.9891 16.7305 21.5873 17.2312 21.5873H26.291C26.7917 21.5873 27.197 21.9891 27.197 22.4855C27.197 22.9819 26.7917 23.3837 26.291 23.3837ZM51.6581 28.7728H49.8462C49.3455 28.7728 48.9402 28.3712 48.9402 27.8746C48.9402 27.3779 49.3455 26.9763 49.8462 26.9763H51.6581C52.159 26.9763 52.5641 27.3779 52.5641 27.8746C52.5641 28.3712 52.159 28.7728 51.6581 28.7728ZM46.2224 28.7728H19.0433C18.5426 28.7728 18.1372 28.3712 18.1372 27.8746C18.1372 27.3779 18.5423 26.9763 19.0433 26.9763H46.2224C46.7231 26.9763 47.1284 27.3779 47.1284 27.8746C47.1284 28.3712 46.7231 28.7728 46.2224 28.7728ZM24.4789 39.5507H19.0433C18.5426 39.5507 18.1372 39.1491 18.1372 38.6524C18.1372 38.1558 18.5423 37.7542 19.0433 37.7542H24.4792C24.9799 37.7542 25.3852 38.1558 25.3852 38.6524C25.3852 39.1491 24.9796 39.5507 24.4789 39.5507ZM51.6581 39.5507H28.103C27.6023 39.5507 27.197 39.1491 27.197 38.6524C27.197 38.1558 27.6023 37.7542 28.103 37.7542H51.6583C52.1592 37.7542 52.5643 38.1558 52.5643 38.6524C52.5643 39.1491 52.159 39.5507 51.6581 39.5507ZM51.6581 34.1618H20.8551C20.3544 34.1618 19.9491 33.76 19.9491 33.2636C19.9491 32.7672 20.3544 32.3654 20.8551 32.3654H51.6581C52.159 32.3654 52.5641 32.7672 52.5641 33.2636C52.5641 33.76 52.159 34.1618 51.6581 34.1618ZM51.6581 44.9397H44.4103C44.2913 44.9398 44.1735 44.9166 44.0635 44.8715C43.9536 44.8263 43.8537 44.7602 43.7695 44.6768C43.6854 44.5933 43.6187 44.4943 43.5731 44.3853C43.5276 44.2763 43.5042 44.1595 43.5043 44.0415C43.5042 43.9235 43.5276 43.8067 43.5731 43.6977C43.6187 43.5887 43.6854 43.4897 43.7695 43.4062C43.8537 43.3228 43.9536 43.2567 44.0635 43.2115C44.1735 43.1664 44.2913 43.1432 44.4103 43.1433H51.6581C51.7771 43.1432 51.8949 43.1664 52.0049 43.2115C52.1148 43.2567 52.2147 43.3228 52.2988 43.4062C52.383 43.4897 52.4497 43.5887 52.4952 43.6977C52.5407 43.8067 52.5641 43.9235 52.5641 44.0415C52.5641 44.1595 52.5407 44.2763 52.4952 44.3853C52.4497 44.4943 52.383 44.5933 52.2988 44.6768C52.2147 44.7602 52.1148 44.8263 52.0049 44.8715C51.8949 44.9166 51.7771 44.9398 51.6581 44.9397ZM46.2224 50.3285H17.2312C17.1122 50.3286 16.9944 50.3054 16.8844 50.2603C16.7745 50.2152 16.6746 50.149 16.5904 50.0656C16.5063 49.9822 16.4395 49.8831 16.394 49.7741C16.3485 49.6651 16.3251 49.5483 16.3252 49.4303C16.3251 49.3124 16.3485 49.1955 16.394 49.0865C16.4395 48.9775 16.5063 48.8785 16.5904 48.7951C16.6746 48.7116 16.7745 48.6455 16.8844 48.6004C16.9944 48.5552 17.1122 48.5321 17.2312 48.5321H46.2224C46.3414 48.5321 46.4592 48.5552 46.5692 48.6004C46.6791 48.6455 46.779 48.7116 46.8632 48.7951C46.9473 48.8785 47.014 48.9775 47.0596 49.0865C47.1051 49.1955 47.1285 49.3124 47.1284 49.4303C47.1285 49.5483 47.1051 49.6651 47.0596 49.7741C47.014 49.8831 46.9473 49.9822 46.8632 50.0656C46.779 50.149 46.6791 50.2152 46.5692 50.2603C46.4592 50.3054 46.3414 50.3286 46.2224 50.3285ZM31.7269 61.1066H17.2314C17.1124 61.1067 16.9946 61.0835 16.8846 61.0384C16.7747 60.9933 16.6748 60.9271 16.5906 60.8437C16.5065 60.7603 16.4398 60.6612 16.3943 60.5522C16.3487 60.4432 16.3254 60.3264 16.3254 60.2084C16.3254 60.0905 16.3487 59.9737 16.3943 59.8647C16.4398 59.7557 16.5065 59.6566 16.5907 59.5732C16.6748 59.4898 16.7747 59.4237 16.8847 59.3786C16.9946 59.3335 17.1124 59.3104 17.2314 59.3104H31.7269C31.8459 59.3104 31.9637 59.3335 32.0737 59.3786C32.1836 59.4237 32.2835 59.4898 32.3677 59.5732C32.4518 59.6566 32.5186 59.7557 32.5641 59.8647C32.6096 59.9737 32.633 60.0905 32.6329 60.2084C32.633 60.3264 32.6096 60.4432 32.5641 60.5522C32.5186 60.6612 32.4518 60.7603 32.3677 60.8437C32.2835 60.9271 32.1836 60.9933 32.0737 61.0384C31.9637 61.0835 31.8459 61.1067 31.7269 61.1066ZM51.6581 55.7176H42.5985C42.4795 55.7176 42.3617 55.6945 42.2517 55.6493C42.1418 55.6042 42.0419 55.5381 41.9577 55.4546C41.8736 55.3712 41.8068 55.2722 41.7613 55.1632C41.7158 55.0542 41.6924 54.9373 41.6925 54.8194C41.6924 54.7014 41.7158 54.5846 41.7613 54.4756C41.8068 54.3666 41.8736 54.2675 41.9577 54.1841C42.0419 54.1007 42.1418 54.0345 42.2517 53.9894C42.3617 53.9443 42.4795 53.9211 42.5985 53.9212H51.6581C51.7771 53.9211 51.8949 53.9443 52.0049 53.9894C52.1148 54.0345 52.2147 54.1007 52.2988 54.1841C52.383 54.2675 52.4497 54.3666 52.4952 54.4756C52.5407 54.5846 52.5641 54.7014 52.5641 54.8194C52.5641 54.9373 52.5407 55.0542 52.4952 55.1632C52.4497 55.2722 52.383 55.3712 52.2988 55.4546C52.2147 55.5381 52.1148 55.6042 52.0049 55.6493C51.8949 55.6945 51.7771 55.7176 51.6581 55.7176ZM38.9746 55.7176H19.0433C18.9243 55.7176 18.8064 55.6945 18.6965 55.6493C18.5865 55.6042 18.4866 55.5381 18.4025 55.4546C18.3183 55.3712 18.2516 55.2722 18.2061 55.1632C18.1606 55.0542 18.1372 54.9373 18.1372 54.8194C18.1372 54.7014 18.1606 54.5846 18.2061 54.4756C18.2516 54.3666 18.3183 54.2675 18.4025 54.1841C18.4866 54.1007 18.5865 54.0345 18.6965 53.9894C18.8064 53.9443 18.9243 53.9211 19.0433 53.9212H38.9746C39.0936 53.9211 39.2115 53.9443 39.3214 53.9894C39.4314 54.0345 39.5313 54.1007 39.6154 54.1841C39.6996 54.2675 39.7663 54.3666 39.8118 54.4756C39.8573 54.5846 39.8807 54.7014 39.8807 54.8194C39.8807 54.9373 39.8573 55.0542 39.8118 55.1632C39.7663 55.2722 39.6996 55.3712 39.6154 55.4546C39.5313 55.5381 39.4314 55.6042 39.3214 55.6493C39.2115 55.6945 39.0936 55.7176 38.9746 55.7176ZM22.6671 66.4957H15.4194C14.9187 66.4957 14.5134 66.0939 14.5134 65.5975C14.5134 65.1011 14.9185 64.6993 15.4194 64.6993H22.6671C23.1678 64.6993 23.5731 65.1011 23.5731 65.5975C23.5731 66.0939 23.1678 66.4957 22.6671 66.4957ZM51.6581 50.3285H49.8462C49.7272 50.3286 49.6094 50.3054 49.4994 50.2603C49.3895 50.2152 49.2896 50.149 49.2055 50.0656C49.1213 49.9822 49.0546 49.8831 49.0091 49.7741C48.9636 49.6651 48.9402 49.5483 48.9402 49.4303C48.9402 49.3124 48.9636 49.1955 49.0091 49.0865C49.0546 48.9775 49.1213 48.8785 49.2055 48.7951C49.2896 48.7116 49.3895 48.6455 49.4994 48.6004C49.6094 48.5552 49.7272 48.5321 49.8462 48.5321H51.6581C51.7771 48.5321 51.8949 48.5552 52.0049 48.6004C52.1148 48.6455 52.2147 48.7116 52.2988 48.7951C52.383 48.8785 52.4497 48.9775 52.4952 49.0865C52.5407 49.1955 52.5641 49.3124 52.5641 49.4303C52.5642 49.5483 52.5408 49.6651 52.4953 49.7742C52.4498 49.8832 52.3831 49.9822 52.2989 50.0657C52.2148 50.1491 52.1148 50.2152 52.0049 50.2603C51.8949 50.3055 51.7771 50.3286 51.6581 50.3285ZM40.7865 44.9397H19.0433C18.9243 44.9398 18.8064 44.9166 18.6965 44.8715C18.5865 44.8263 18.4866 44.7602 18.4025 44.6768C18.3183 44.5933 18.2516 44.4943 18.2061 44.3853C18.1606 44.2763 18.1372 44.1595 18.1372 44.0415C18.1372 43.9235 18.1606 43.8067 18.2061 43.6977C18.2516 43.5887 18.3183 43.4897 18.4025 43.4062C18.4866 43.3228 18.5865 43.2567 18.6965 43.2115C18.8064 43.1664 18.9243 43.1432 19.0433 43.1433H40.7867C40.9057 43.1432 41.0235 43.1664 41.1335 43.2115C41.2434 43.2567 41.3433 43.3228 41.4275 43.4062C41.5116 43.4897 41.5784 43.5887 41.6239 43.6977C41.6694 43.8067 41.6928 43.9235 41.6927 44.0415C41.6927 44.1595 41.6693 44.2763 41.6238 44.3853C41.5782 44.4943 41.5115 44.5934 41.4273 44.6768C41.3432 44.7602 41.2432 44.8263 41.1333 44.8715C41.0233 44.9166 40.9055 44.9398 40.7865 44.9397Z" fill="black"/>
<path d="M58 71.8847C57.881 71.8847 57.7632 71.8615 57.6532 71.8164C57.5433 71.7713 57.4434 71.7051 57.3592 71.6217C57.2751 71.5383 57.2083 71.4393 57.1628 71.3303C57.1173 71.2213 57.0939 71.1044 57.094 70.9865V11.7078C57.0939 11.5898 57.1173 11.473 57.1628 11.364C57.2083 11.255 57.2751 11.1559 57.3592 11.0725C57.4434 10.9891 57.5433 10.9229 57.6532 10.8778C57.7632 10.8327 57.881 10.8095 58 10.8096C58.119 10.8095 58.2368 10.8327 58.3468 10.8778C58.4567 10.9229 58.5566 10.9891 58.6407 11.0725C58.7248 11.156 58.7916 11.255 58.837 11.364C58.8825 11.473 58.9059 11.5898 58.9058 11.7078V70.9865C58.9059 71.1044 58.8825 71.2212 58.837 71.3302C58.7916 71.4392 58.7248 71.5383 58.6407 71.6217C58.5566 71.7051 58.4567 71.7713 58.3468 71.8164C58.2368 71.8615 58.119 71.8847 58 71.8847Z" fill="black"/>
<path d="M102.392 61.1066C102.242 61.1066 102.093 61.0692 101.961 60.9979C101.828 60.9265 101.716 60.8234 101.633 60.698L90.6146 43.8934L79.5962 60.698C79.3254 61.1171 78.761 61.2312 78.3435 60.9628C78.1421 60.8326 78.0011 60.6286 77.9513 60.3954C77.9015 60.1623 77.9471 59.919 78.078 59.7191L89.8556 41.7558C90.1884 41.2455 91.041 41.2455 91.3738 41.7558L103.151 59.7191C103.282 59.919 103.328 60.1623 103.278 60.3954C103.228 60.6286 103.087 60.8326 102.886 60.9628C102.734 61.0607 102.562 61.1066 102.392 61.1066Z" fill="black"/>
<path d="M71.5897 61.1068C71.4257 61.1068 71.2648 61.0627 71.1241 60.9791C70.9834 60.8956 70.8682 60.7758 70.7908 60.6325C70.7134 60.4891 70.6767 60.3276 70.6846 60.1653C70.6925 60.0029 70.7447 59.8457 70.8357 59.7104L78.0834 48.943C78.1662 48.8201 78.2783 48.7193 78.4098 48.6496C78.5413 48.5799 78.6881 48.5434 78.8372 48.5434C78.9863 48.5434 79.1331 48.5799 79.2646 48.6496C79.3961 48.7193 79.5082 48.8201 79.591 48.943L83.162 54.2494C83.2952 54.4477 83.3436 54.6902 83.2965 54.9237C83.2493 55.1573 83.1106 55.3627 82.9108 55.4949C82.4948 55.7667 81.9325 55.6598 81.6545 55.2458L78.8374 51.0593L72.3432 60.7067C72.2606 60.8298 72.1485 60.9307 72.0171 61.0005C71.8856 61.0703 71.7388 61.1068 71.5897 61.1068ZM71.5897 48.5325C69.0909 48.5325 67.0598 46.5177 67.0598 44.0416C67.0598 41.5655 69.0909 39.5508 71.5897 39.5508C74.088 39.5508 76.1196 41.5655 76.1196 44.0416C76.1198 46.5177 74.0882 48.5325 71.5897 48.5325ZM71.5897 41.3472C70.091 41.3472 68.8718 42.5558 68.8718 44.0416C68.8718 45.5274 70.091 46.736 71.5897 46.736C73.0884 46.736 74.3075 45.5274 74.3075 44.0416C74.3075 42.5558 73.0886 41.3472 71.5897 41.3472Z" fill="black"/>
<path d="M104.205 61.1066H64.3419C63.841 61.1066 63.4357 60.705 63.4357 60.2084V36.8562C63.4356 36.7382 63.459 36.6214 63.5045 36.5124C63.5501 36.4034 63.6168 36.3043 63.701 36.2209C63.7852 36.1375 63.8851 36.0713 63.9951 36.0262C64.105 35.9811 64.2229 35.9579 64.3419 35.958H104.204C104.323 35.9579 104.441 35.9811 104.551 36.0263C104.661 36.0714 104.761 36.1376 104.845 36.221C104.929 36.3044 104.996 36.4034 105.041 36.5124C105.087 36.6214 105.11 36.7383 105.11 36.8562V60.2084C105.11 60.3264 105.087 60.4432 105.042 60.5522C104.996 60.6612 104.929 60.7603 104.845 60.8437C104.761 60.9271 104.661 60.9933 104.551 61.0384C104.442 61.0835 104.324 61.1067 104.205 61.1066ZM65.2477 59.3104H103.299V37.7544H65.2477V59.3104Z" fill="black"/>
<path d="M104.205 17.9947H64.3419C63.841 17.9947 63.4357 17.5931 63.4357 17.0965C63.4357 16.5998 63.841 16.1982 64.3419 16.1982H104.204C104.705 16.1982 105.11 16.5998 105.11 17.0965C105.11 17.5931 104.705 17.9947 104.205 17.9947Z" fill="black"/>
<path d="M104.205 32.3657C104.086 32.3658 103.968 32.3426 103.858 32.2975C103.748 32.2524 103.648 32.1862 103.564 32.1028C103.48 32.0193 103.413 31.9203 103.368 31.8113C103.322 31.7023 103.299 31.5854 103.299 31.4675V17.0969C103.299 16.6006 103.704 16.1987 104.205 16.1987C104.706 16.1987 105.11 16.6003 105.11 17.0969V31.4675C105.111 31.5854 105.087 31.7022 105.042 31.8112C104.996 31.9202 104.93 32.0193 104.845 32.1027C104.761 32.1861 104.661 32.2523 104.551 32.2974C104.442 32.3425 104.324 32.3657 104.205 32.3657Z" fill="black"/>
<path d="M104.205 32.3658H64.3419C63.841 32.3658 63.4357 31.9642 63.4357 31.4676C63.4357 30.9709 63.841 30.5693 64.3419 30.5693H104.204C104.705 30.5693 105.11 30.9709 105.11 31.4676C105.11 31.9642 104.705 32.3658 104.205 32.3658Z" fill="black"/>
<path d="M98.7688 25.1802H64.3419C63.841 25.1802 63.4357 24.7786 63.4357 24.282C63.4357 23.7854 63.841 23.3838 64.3419 23.3838H98.7688C99.2692 23.3838 99.6746 23.7854 99.6746 24.282C99.6746 24.7786 99.2692 25.1802 98.7688 25.1802Z" fill="black"/>
<path d="M104.205 66.4956H64.3419C63.841 66.4956 63.4357 66.0938 63.4357 65.5974C63.4357 65.101 63.841 64.6992 64.3419 64.6992H104.204C104.705 64.6992 105.11 65.101 105.11 65.5974C105.11 66.0938 104.705 66.4956 104.205 66.4956Z" fill="black"/>
</svg>
