<svg width="1024" height="183" viewBox="0 0 1024 183" fill="none" xmlns="http://www.w3.org/2000/svg">
<path d="M367.544 52.698C336.769 52.698 319.184 71.7024 319.184 104.211C319.184 136.72 339.429 155.064 372.128 155.936C387.443 156.305 400.075 152.493 410.964 148.245C411.13 148.181 411.273 148.067 411.373 147.92C411.473 147.772 411.526 147.597 411.523 147.418V125.272C411.526 125.196 411.508 125.12 411.473 125.053C411.437 124.986 411.384 124.929 411.32 124.888C411.255 124.847 411.181 124.824 411.105 124.821C411.029 124.818 410.953 124.835 410.886 124.87C400.713 130.124 387.298 133.198 378.209 133.198C361.441 133.198 351.011 127.911 349.088 114.25H414.742C414.873 114.25 414.998 114.198 415.09 114.106C415.182 114.013 415.234 113.888 415.234 113.758V108.001C415.19 78.6445 404.234 52.698 367.544 52.698ZM348.719 94.9212C349.468 83.5969 355.303 74.3071 367.5 74.3071C380.993 74.3071 386.247 83.5969 386.247 94.9212H348.719Z" fill="#002855"/>
<path d="M482.208 54.4419C466.669 54.4419 456.496 59.1036 449.789 73.3121H449.397V55.9958C449.397 55.7705 449.308 55.5544 449.149 55.395C448.989 55.2357 448.773 55.1462 448.548 55.1462H424.155C423.93 55.1462 423.714 55.2357 423.554 55.395C423.395 55.5544 423.305 55.7705 423.305 55.9958V152.806C423.305 153.032 423.395 153.248 423.554 153.407C423.714 153.566 423.93 153.656 424.155 153.656H451.533C451.758 153.656 451.974 153.566 452.133 153.407C452.293 153.248 452.382 153.032 452.382 152.806V112.047C452.382 90.8856 459.593 81.2269 473.622 81.2269C482.867 81.2269 490.704 87.4648 490.704 106V152.806C490.704 153.032 490.793 153.248 490.953 153.407C491.112 153.566 491.328 153.656 491.554 153.656H518.965C519.19 153.656 519.406 153.566 519.565 153.407C519.725 153.248 519.814 153.032 519.814 152.806V93.7586C519.825 73.3456 509.026 54.4419 482.208 54.4419Z" fill="#002855"/>
<path d="M178.451 91.4669C163.125 88.1132 160.71 86.4252 160.71 81.9759C160.71 76.9342 165.584 73.9717 174.125 73.9717C182.666 73.9717 190.804 75.8945 200.127 80.0643C200.222 80.1093 200.327 80.1297 200.432 80.1237C200.537 80.1176 200.638 80.0852 200.727 80.0296C200.816 79.9739 200.89 79.8967 200.941 79.8051C200.993 79.7135 201.02 79.6104 201.022 79.5053V57.3149C201.039 57.0116 200.96 56.7106 200.795 56.4553C200.63 56.2001 200.389 56.0039 200.105 55.8952C192.011 53.1899 182.811 52.1949 171.934 52.1949C144.646 52.1949 128.783 64.6484 128.783 84.1335C128.783 100.712 137.726 108.504 158.642 113.333C174.717 117.078 177.177 118.744 177.177 123.573C177.177 129.319 171.386 131.398 163.516 131.398C153.956 131.263 144.496 129.442 135.568 126.021C135.473 125.985 135.37 125.972 135.269 125.985C135.167 125.997 135.07 126.034 134.987 126.093C134.903 126.151 134.834 126.229 134.788 126.32C134.741 126.411 134.717 126.512 134.719 126.614L135.099 148.972C135.103 149.261 135.202 149.541 135.383 149.768C135.563 149.994 135.813 150.155 136.094 150.224C145.464 152.463 155.056 153.64 164.69 153.734C192.168 153.734 209.708 142.03 209.708 121.203C209.652 99.7953 194.515 95.0219 178.451 91.4669Z" fill="#002855"/>
<path d="M89.8236 47.0749L74.4524 7.54583C73.6435 5.49395 72.2359 3.73296 70.4126 2.49191C68.5893 1.25085 66.4348 0.587158 64.2292 0.587158C62.0236 0.587158 59.8691 1.25085 58.0458 2.49191C56.2225 3.73296 54.8149 5.49395 54.006 7.54583L42.8828 35.9965H47.6786C70.428 35.9965 88.7057 46.4489 89.8236 47.0749Z" fill="#002855"/>
<path d="M105.899 88.1803C101.075 76.0228 92.7123 65.5935 81.8937 58.2429C71.075 50.8923 58.2988 46.9589 45.2192 46.952H38.6012L0.447143 144.702C0.0748017 145.709 -0.0502722 146.791 0.0824115 147.856C0.215095 148.922 0.601662 149.94 1.20963 150.825C1.8176 151.71 2.62918 152.436 3.57615 152.943C4.52312 153.449 5.5778 153.72 6.65151 153.734H25.0634C25.8891 153.744 26.698 153.502 27.3829 153.04C28.0678 152.579 28.5962 151.92 28.8978 151.152L37.4721 129.677C37.6864 129.11 38.0689 128.622 38.5684 128.278C39.0679 127.934 39.6606 127.751 40.2669 127.754H88.1579C88.7642 127.751 89.3568 127.934 89.8564 128.278C90.3559 128.622 90.7384 129.11 90.9527 129.677L99.4934 151.152C99.7951 151.92 100.323 152.579 101.008 153.04C101.693 153.502 102.502 153.744 103.328 153.734H121.74C122.811 153.738 123.867 153.482 124.817 152.987C125.767 152.492 126.582 151.773 127.193 150.893C127.803 150.013 128.191 148.998 128.321 147.935C128.452 146.872 128.323 145.793 127.944 144.791L105.899 88.1803ZM77.0012 104.669H51.4236C50.975 104.672 50.5325 104.566 50.1346 104.358C49.7367 104.151 49.3956 103.85 49.141 103.48C48.8863 103.111 48.7259 102.685 48.6736 102.24C48.6214 101.794 48.6789 101.343 48.8412 100.924L60.6239 71.3111C60.9054 70.601 61.3938 69.9918 62.0257 69.5626C62.6575 69.1334 63.4038 68.9039 64.1677 68.9039C64.9315 68.9039 65.6778 69.1334 66.3097 69.5626C66.9416 69.9918 67.4299 70.601 67.7114 71.3111L79.4941 100.924C79.6539 101.336 79.7123 101.779 79.6646 102.218C79.6169 102.656 79.4644 103.077 79.2199 103.444C78.9755 103.811 78.6463 104.114 78.2602 104.328C77.874 104.541 77.4422 104.658 77.0012 104.669Z" fill="#002855"/>
<path d="M273.372 55.1127C260.17 55.1127 249.382 61.44 242.35 71.8141V55.4145C242.35 55.1892 242.261 54.9731 242.102 54.8137C241.942 54.6544 241.726 54.5649 241.501 54.5649H216.616C216.393 54.5678 216.18 54.6586 216.023 54.8176C215.866 54.9767 215.778 55.1911 215.778 55.4145V180.787C215.778 181.011 215.866 181.225 216.023 181.384C216.18 181.543 216.393 181.634 216.616 181.637H244.117C244.342 181.637 244.558 181.548 244.717 181.388C244.877 181.229 244.966 181.013 244.966 180.787V138.486C252.255 147.239 262.339 152.482 273.372 152.482C298.156 152.482 313.069 131.823 313.069 101.796C313.069 76.8112 298.86 55.1127 273.372 55.1127ZM264.63 130.158C254.01 130.158 245.179 119.292 245.179 104.759C245.179 89.8459 253.004 78.7675 264.63 78.7675C276.994 78.7675 283.914 90.2595 283.914 103.361C283.948 119.292 276.659 130.158 264.63 130.158Z" fill="#002855"/>
<path d="M970.206 94.9213C970.206 68.7288 959.128 55.1462 931.549 55.1462C920.377 55.2211 909.437 58.3484 899.913 64.1901L900.874 79.2706C908.04 73.2227 918.76 69.4778 928.822 69.4778C946.563 69.4778 952.599 77.9738 952.599 94.5524C945.646 94.1723 940.694 94.1723 933.74 94.1723C915.452 94.1723 889.024 101.718 889.024 125.876C889.024 146.781 903.557 155.858 924.305 155.858C940.504 155.858 949.917 146.982 954.086 141.113H954.455V153.566H971.078C970.654 150.738 970.285 145.652 970.285 134.741L970.206 94.9213ZM952.454 116.262C952.454 130.594 943.209 141.538 925.68 141.538C917.553 141.538 907.794 136.049 907.794 125.887C907.794 108.884 931.527 107.386 941.152 107.386C944.942 107.386 948.687 107.766 952.477 107.766L952.454 116.262Z" fill="#002855"/>
<path d="M860.786 124.367V71.7247H886.23V57.4044H860.786V31.8267L843.045 37.4945V57.4044H821.313V71.7247H843.011V127.955C843.011 147.15 854.336 155.903 872.625 155.903C878.281 155.903 883.737 154.36 887.694 153.242V138.117C884.088 140.4 879.888 141.566 875.621 141.471C867.494 141.493 860.786 135.49 860.786 124.367Z" fill="#002855"/>
<path d="M1001.15 30.8318H983.454V153.566H1001.15V30.8318Z" fill="#002855"/>
<path d="M787.161 55.1462C773.746 55.1462 760.957 61.7307 755.669 72.6862H755.334V57.4044H738.141V153.544H755.882V109.085C755.882 85.6762 764.915 69.4778 785.115 69.4778C800.564 70.4392 805.483 81.3499 805.483 103.797V153.567H823.18V96.4193C823.18 70.6069 812.068 55.1462 787.161 55.1462Z" fill="#002855"/>
<path d="M569.416 32.9111H534.47V153.734H569.416C608.397 153.734 632.51 132.785 632.51 92.2495C632.51 55.068 604.529 32.9111 569.416 32.9111ZM569.248 138.486H551.428V48.1482H571.249C595.653 48.1482 614.478 64.7267 614.478 92.9649C614.523 124.087 598.403 138.486 569.248 138.486Z" fill="#002855"/>
<path d="M685.745 55.1462C658.591 55.1462 640.637 75.2685 640.637 103.797C640.637 135.099 656.288 155.858 690.451 155.858C706.28 155.858 715.045 151.655 721.898 149.151V131.454C717.56 135.032 702.893 141.515 691.2 141.515C687.005 141.536 682.848 140.717 678.973 139.108C675.099 137.5 671.585 135.133 668.638 132.147C665.691 129.162 663.37 125.617 661.811 121.722C660.253 117.827 659.489 113.66 659.563 109.465H728.191C728.135 78.5104 717.772 55.1462 685.745 55.1462ZM659.563 96.2627C660.894 83.8093 668.059 69.4331 685.376 69.4331C700.669 69.4331 709.366 81.5064 709.366 96.2627H659.563Z" fill="#002855"/>
<path d="M1009.47 35.0239C1008.35 34.7556 1007.23 34.4873 1007.23 33.28C1007.23 32.0726 1008.17 31.6478 1009.37 31.6478C1010.56 31.6478 1011.45 32.1844 1011.48 33.3135H1012.66C1012.6 31.5249 1011.14 30.597 1009.31 30.597C1007.48 30.597 1006.08 31.5137 1006.08 33.3359C1006.08 35.158 1007.69 35.6946 1009.09 36.03C1010.1 36.2759 1011.59 36.5331 1011.59 37.8298C1011.59 38.8248 1010.71 39.4061 1009.55 39.4061C1009.23 39.4459 1008.91 39.4177 1008.6 39.3233C1008.3 39.229 1008.02 39.0706 1007.78 38.8589C1007.54 38.6471 1007.35 38.3869 1007.22 38.0957C1007.09 37.8045 1007.03 37.4889 1007.03 37.1703H1005.8C1005.8 37.6404 1005.89 38.1057 1006.08 38.5361C1006.27 38.9665 1006.55 39.3524 1006.9 39.6686C1007.25 39.9849 1007.66 40.2244 1008.1 40.3718C1008.55 40.5191 1009.02 40.571 1009.49 40.524C1011.23 40.524 1012.84 39.5738 1012.84 37.7628C1012.84 35.9517 1010.89 35.3593 1009.47 35.0239Z" fill="#002855"/>
<path d="M1022 30.8318L1019.14 38.3776L1016.29 30.8318H1014.64V40.2222H1015.74V32.4639L1018.69 40.2222H1019.56L1022.51 32.4639V40.2222H1023.64V30.8318H1022Z" fill="#002855"/>
</svg>
