<?xml version="1.0" encoding="UTF-8"?>
<svg id="Layer_2" data-name="Layer 2" xmlns="http://www.w3.org/2000/svg" xmlns:xlink="http://www.w3.org/1999/xlink" viewBox="0 0 1006.71 210.46">
  <defs>
    <style>
      .cls-1 {
        clip-path: url(#clippath);
      }

      .cls-2 {
        fill: none;
      }

      .cls-2, .cls-3, .cls-4, .cls-5, .cls-6, .cls-7, .cls-8, .cls-9, .cls-10, .cls-11, .cls-12, .cls-13, .cls-14, .cls-15, .cls-16, .cls-17, .cls-18, .cls-19, .cls-20, .cls-21, .cls-22, .cls-23, .cls-24, .cls-25, .cls-26, .cls-27, .cls-28, .cls-29, .cls-30, .cls-31, .cls-32, .cls-33, .cls-34, .cls-35, .cls-36, .cls-37, .cls-38, .cls-39, .cls-40, .cls-41, .cls-42, .cls-43, .cls-44, .cls-45, .cls-46, .cls-47, .cls-48, .cls-49, .cls-50, .cls-51, .cls-52, .cls-53, .cls-54, .cls-55, .cls-56, .cls-57, .cls-58, .cls-59, .cls-60, .cls-61, .cls-62, .cls-63, .cls-64, .cls-65, .cls-66, .cls-67, .cls-68, .cls-69, .cls-70, .cls-71, .cls-72, .cls-73, .cls-74, .cls-75, .cls-76, .cls-77, .cls-78, .cls-79, .cls-80, .cls-81, .cls-82, .cls-83, .cls-84, .cls-85, .cls-86, .cls-87, .cls-88, .cls-89, .cls-90, .cls-91, .cls-92, .cls-93, .cls-94, .cls-95, .cls-96, .cls-97, .cls-98, .cls-99, .cls-100, .cls-101, .cls-102, .cls-103, .cls-104, .cls-105, .cls-106, .cls-107, .cls-108, .cls-109, .cls-110, .cls-111, .cls-112, .cls-113, .cls-114, .cls-115, .cls-116, .cls-117, .cls-118, .cls-119, .cls-120, .cls-121, .cls-122, .cls-123, .cls-124, .cls-125, .cls-126, .cls-127, .cls-128, .cls-129, .cls-130, .cls-131, .cls-132, .cls-133, .cls-134, .cls-135, .cls-136, .cls-137, .cls-138, .cls-139, .cls-140, .cls-141, .cls-142, .cls-143 {
        stroke-width: 0px;
      }

      .cls-144 {
        clip-path: url(#clippath-1);
      }

      .cls-145 {
        clip-path: url(#clippath-2);
      }

      .cls-3 {
        fill: #3391dc;
      }

      .cls-4 {
        fill: #2b7be4;
      }

      .cls-5 {
        fill: #2b7ce4;
      }

      .cls-6 {
        fill: #2877e1;
      }

      .cls-7 {
        fill: #2876e1;
      }

      .cls-8 {
        fill: #2875e1;
      }

      .cls-9 {
        fill: #2874e1;
      }

      .cls-10 {
        fill: #2a79e4;
      }

      .cls-11 {
        fill: #2a7ae4;
      }

      .cls-12 {
        fill: #2978e1;
      }

      .cls-13 {
        fill: #3795dc;
      }

      .cls-14 {
        fill: #2e8de0;
      }

      .cls-15 {
        fill: #2d8ce0;
      }

      .cls-16 {
        fill: #3a78f4;
      }

      .cls-17 {
        fill: #3c7bf4;
      }

      .cls-18 {
        fill: #3c7cf4;
      }

      .cls-19 {
        fill: #3b79f4;
      }

      .cls-20 {
        fill: #3b7af4;
      }

      .cls-21 {
        fill: #094ee0;
      }

      .cls-22 {
        fill: #3593dc;
      }

      .cls-23 {
        fill: #3594dc;
      }

      .cls-24 {
        fill: #3492dc;
      }

      .cls-25 {
        fill: #0b3dd8;
      }

      .cls-26 {
        fill: #0b3cd8;
      }

      .cls-27 {
        fill: #064be0;
      }

      .cls-28 {
        fill: #064ade;
      }

      .cls-29 {
        fill: #074de0;
      }

      .cls-30 {
        fill: #074ce0;
      }

      .cls-31 {
        fill: #055be7;
      }

      .cls-32 {
        fill: #407cf8;
      }

      .cls-33 {
        fill: #0636d4;
      }

      .cls-34 {
        fill: #0635d4;
      }

      .cls-35 {
        fill: #0737d6;
      }

      .cls-36 {
        fill: #427ff8;
      }

      .cls-37 {
        fill: #0c3ed8;
      }

      .cls-38 {
        fill: #065de7;
      }

      .cls-39 {
        fill: #065ce7;
      }

      .cls-40 {
        fill: #056de4;
      }

      .cls-41 {
        fill: #417ef8;
      }

      .cls-42 {
        fill: #417df8;
      }

      .cls-43 {
        fill: #0a4fe0;
      }

      .cls-44 {
        fill: #0939d6;
      }

      .cls-45 {
        fill: #093ad6;
      }

      .cls-46 {
        fill: #0a3bd8;
      }

      .cls-47 {
        fill: #0838d6;
      }

      .cls-48 {
        fill: #0839d6;
      }

      .cls-49 {
        fill: #208ed3;
      }

      .cls-50 {
        fill: #1f8dd3;
      }

      .cls-51 {
        fill: #1f8cd3;
      }

      .cls-52 {
        fill: #1e8bd3;
      }

      .cls-53 {
        fill: #1d8ad3;
      }

      .cls-54 {
        fill: #3090e0;
      }

      .cls-55 {
        fill: #2e8fe0;
      }

      .cls-56 {
        fill: #2e8ee0;
      }

      .cls-57 {
        fill: #333;
      }

      .cls-58 {
        fill: #002dd1;
      }

      .cls-59 {
        fill: #0031d9;
      }

      .cls-60 {
        fill: #003ada;
      }

      .cls-61 {
        fill: #0032d9;
      }

      .cls-62 {
        fill: #0034d9;
      }

      .cls-63 {
        fill: #0035d9;
      }

      .cls-64 {
        fill: #0055e4;
      }

      .cls-65 {
        fill: #003edb;
      }

      .cls-66 {
        fill: #003fdb;
      }

      .cls-67 {
        fill: #0037da;
      }

      .cls-68 {
        fill: #0024d0;
      }

      .cls-69 {
        fill: #0021d0;
      }

      .cls-70 {
        fill: #002bd1;
      }

      .cls-71 {
        fill: #0036d9;
      }

      .cls-72 {
        fill: #0534d4;
      }

      .cls-73 {
        fill: #046ce4;
      }

      .cls-74 {
        fill: #0533d4;
      }

      .cls-75 {
        fill: #0258e5;
      }

      .cls-76 {
        fill: #0230d2;
      }

      .cls-77 {
        fill: #0244dc;
      }

      .cls-78 {
        fill: #0177d1;
      }

      .cls-79 {
        fill: #022fd2;
      }

      .cls-80 {
        fill: #0176ce;
      }

      .cls-81 {
        fill: #0345dc;
      }

      .cls-82 {
        fill: #0346dc;
      }

      .cls-83 {
        fill: #0279d1;
      }

      .cls-84 {
        fill: #0269e4;
      }

      .cls-85 {
        fill: #0268e1;
      }

      .cls-86 {
        fill: #0331d2;
      }

      .cls-87 {
        fill: #0278d1;
      }

      .cls-88 {
        fill: #0259e5;
      }

      .cls-89 {
        fill: #004ce3;
      }

      .cls-90 {
        fill: #004de3;
      }

      .cls-91 {
        fill: #004ee3;
      }

      .cls-92 {
        fill: #0051e4;
      }

      .cls-93 {
        fill: #0052e4;
      }

      .cls-94 {
        fill: #0054e4;
      }

      .cls-95 {
        fill: #0056e5;
      }

      .cls-96 {
        fill: #003cda;
      }

      .cls-97 {
        fill: #0040db;
      }

      .cls-98 {
        fill: #003bda;
      }

      .cls-99 {
        fill: #0050e4;
      }

      .cls-100 {
        fill: #0041db;
      }

      .cls-101 {
        fill: #004be3;
      }

      .cls-102 {
        fill: #0039da;
      }

      .cls-103 {
        fill: #0359e5;
      }

      .cls-104 {
        fill: #035ae7;
      }

      .cls-105 {
        fill: #0549de;
      }

      .cls-106 {
        fill: #0448de;
      }

      .cls-107 {
        fill: #036ae4;
      }

      .cls-108 {
        fill: #0432d2;
      }

      .cls-109 {
        fill: #037ad1;
      }

      .cls-110 {
        fill: #0447de;
      }

      .cls-111 {
        fill: #0066e1;
      }

      .cls-112 {
        fill: #0061e0;
      }

      .cls-113 {
        fill: #0060e0;
      }

      .cls-114 {
        fill: #0074ce;
      }

      .cls-115 {
        fill: #012ed1;
      }

      .cls-116 {
        fill: #0062e0;
      }

      .cls-117 {
        fill: #0067e1;
      }

      .cls-118 {
        fill: #0065e1;
      }

      .cls-119 {
        fill: #0063e0;
      }

      .cls-120 {
        fill: #0073ce;
      }

      .cls-121 {
        fill: #0075ce;
      }

      .cls-122 {
        fill: #0013cf;
      }

      .cls-123 {
        fill: #000ece;
      }

      .cls-124 {
        fill: #0007ce;
      }

      .cls-125 {
        fill: #0005cd;
      }

      .cls-126 {
        fill: #0000cd;
      }

      .cls-127 {
        fill: #0002cd;
      }

      .cls-128 {
        fill: #0015cf;
      }

      .cls-129 {
        fill: #0009ce;
      }

      .cls-130 {
        fill: #0011cf;
      }

      .cls-131 {
        fill: #0018cf;
      }

      .cls-132 {
        fill: #000cce;
      }

      .cls-133 {
        fill: #0028d1;
      }

      .cls-134 {
        fill: #0026d0;
      }

      .cls-135 {
        fill: #001acf;
      }

      .cls-136 {
        fill: #001cd0;
      }

      .cls-137 {
        fill: #0143dc;
      }

      .cls-138 {
        fill: #0142dc;
      }

      .cls-139 {
        fill: #0157e5;
      }

      .cls-140 {
        fill: #036be4;
      }

      .cls-141 {
        fill: #001fd0;
      }

      .cls-142 {
        fill: #0071ce;
      }

      .cls-143 {
        fill: #0064e0;
      }
    </style>
    <clipPath id="clippath">
      <path class="cls-2" d="M107.62,176.83c5.68-3.01,10.58-7.05,15.26-11.38,3.7-2.88,7.06-6.13,10.4-9.4,4.31-4.23,8.77-8.3,12.76-12.84.98-1,1.88-2.08,2.94-2.99,6.13-5.29,11.86-11.04,18.16-16.13,12.75-9.51,26.12-17.04,43.19-13.22-9.9-15.76-27.41-20.07-44.51-12.03-7.8,3.35-14.59,8.35-21.53,13.1-.55.14-1.02.4-1.4.81-.05.03-.09.07-.13.13,0,0-.03.01-.03.01-.62.33-1.25.65-1.86,1-5.84,3.44-11.9,6.31-18.73,7.19-.71.02-1.42.05-2.13.06-5.64.07-10.88-1.43-13.66-6.55-2.73-5.04-2.59-10.62.3-15.78,1.44-2.56,3.66-4.49,6.1-6.13.71.16,1.19-.37,1.77-.6,6.01-2.39,11.7-1.79,17.08,1.79,1.7,1.13,3.09,2.63,4.54,4.31.3-1.58-.11-2.83-.3-4.07-1.97-13.2-12.21-21.36-23.04-23.22-3.25-.87-6.55-1.11-9.9-.9h0c-7.06-.06-13.61,1.74-19.68,5.32-3.19,1.64-6,3.82-8.51,6.35-11.2,11.34-16.08,24.86-13.86,40.78.98,7.05,3.82,13.34,7.79,19.19.3.44,1.33.83.45,1.64-1.3-.56-2.61-1.1-3.9-1.69-4.88-2.2-9.66-4.58-13.96-7.82,0,0,0,0,0,0-.59-.51-1.16-1.03-1.76-1.52-6.16-5.01-11.1-11-14.65-18.12-.24.05-.42.05-.57.01.14,0,.32,0,.57-.01-3.59-7.84-5.63-16.05-5.95-24.68-.47-12.58,1-24.83,6.13-36.47,3.79-7.98,8.88-15.06,14.78-21.6,3.91-4.33,8.41-8.01,12.77-11.84,3.95-2.72,7.94-5.38,12.14-7.7C88.27,4.34,102.74.53,118.3,1.1c1.24.82,2.54.38,3.84.11-1.3-.15-2.6-.29-3.9-.44h0c-12.62-1.49-25.12-.85-37.47,2.12-7.45,1.79-14.68,4.22-21.51,7.75-2.8,1.21-5.45,2.71-8.05,4.3-6.54,4.01-12.79,8.42-18.17,13.95-7.16,6.47-13.11,13.92-17.94,22.27-.28.4-.59.79-.83,1.22C-1.22,79.94-4.06,108.79,5.56,138.86c2.39,7.46,5.61,14.58,9.99,21.12,4.24,7.38,9.29,14.05,16.31,19.05,6.1,4.69,13,7.57,20.52,9.02,5.1.98,10.21,1.63,15.4,1.13.36.1.81.05,1.38-.16,4.8,0,9.48-.82,14.09-2.15h0c6.81-1.47,13.27-3.86,19.37-7.22,1.66-.95,3.31-1.93,5-2.83Z"/>
    </clipPath>
    <clipPath id="clippath-1">
      <path class="cls-2" d="M207.93,119.31c-7.44,1.31-14.39,3.86-20.74,7.98-6.94,4.15-12.92,9.45-18.43,15.32-6.43,6.37-12.21,13.31-17.9,20.34-4.31,4.93-8.61,9.85-12.92,14.78-4.46,4.42-8.88,8.88-13.63,13-.29.2-.59.38-.86.6-10.32,8.32-21.77,14.23-34.99,16.34-.56.09-1.14.09-1.69.21-.53.11-1.23-.09-1.61.64,8.04,1.55,16.05,2.21,24.12,1.85,5.37-.24,10.75-.58,15.98-1.93.15-.03.31-.06.47-.12,4.51-.66,8.89-1.81,13.13-3.47,4.33-1.27,8.5-2.92,12.45-5.11,6.46-2.96,12.49-6.61,17.98-11.13h0c1.99-1.15,3.63-2.74,5.33-4.25,4.95-4.4,9.66-9.04,13.51-14.48-.12-.19-.23-.38-.32-.57.13.15.22.37.32.57,1.28-1.72,2.59-3.42,3.83-5.17,9.4-13.25,14.89-28.06,17.47-44.02.22-1.38-.3-1.58-1.49-1.37Z"/>
    </clipPath>
    <clipPath id="clippath-2">
      <path class="cls-2" d="M91.75,27.17c-5.66,2.28-10.74,5.51-15.41,9.4-.35.23-.73.43-1.06.7-10.31,8.55-17.82,19.07-22.3,31.72-.54,1.52-1.23,3.02-1.33,5.08,3-3.56,5.85-6.72,8.98-9.62,4.83-4.47,10.3-8.02,15.86-11.48h0c4.82-2.46,9.84-4.44,14.87-6.41,4.71-1.14,9.42-2.28,14.12-3.42,6.53-.8,13.07-1.2,19.65-1.01,5.17.31,10.29.97,15.37,2,0,0,0,0,0,0,5.43,1.19,10.68,2.95,15.88,4.88h0c5.76,2.59,11.27,5.63,16.53,9.13h0c.55.44,1.09.9,1.66,1.32,10.12,7.65,18.05,17.08,23.29,28.7.2.45.16,1.11.93,1.25,0-.34.01-.62,0-.9-.74-14.57-5.62-27.62-14.46-39.18-2.58-3.38-5.29-6.67-8.74-9.23-.37-1-1.3-1.45-2.04-2.07-5.2-4.41-10.87-8.1-17.15-10.79-4.86-2.46-9.96-4.22-15.33-5.16-4.03-1.16-8.14-1.72-12.32-1.73-.51-.09-1.03-.13-1.54-.15-7.06-.57-14,.33-20.89,1.97-5.07,1.04-9.97,2.61-14.57,5.02Z"/>
    </clipPath>
  </defs>
  <g id="Layer_1-2" data-name="Layer 1">
    <g>
      <g>
        <path class="cls-57" d="M267.04,31.07h84.51l19.33,19.33v39.07l-8.57,8.57,14.75,14.75v36.87l-20.93,20.93h-89.1V31.07ZM339.99,91.06l8.17-8.17v-24.32l-7.97-7.97h-50.63v40.46h50.43ZM344.78,151.06l9.57-9.57v-22.32l-9.57-9.37h-55.21v41.26h55.21Z"/>
        <path class="cls-57" d="M398.99,28.28h22.52v142.31h-22.52V28.28Z"/>
        <path class="cls-57" d="M447.42,150.46v-79.13h22.52v72.15l7.77,7.77h17.34l21.13-21.13v-58.8h22.52v99.26h-20.93v-18.34l-18.54,18.34h-31.69l-20.13-20.13Z"/>
        <path class="cls-57" d="M562.63,150.86v-59.6l19.73-19.93h54.02l20.13,19.93v37.07h-71.36v15.95l7.57,7.57h34.08l7.18-7.38v-5.98h22.32v12.76l-19.33,19.33h-54.81l-19.53-19.73ZM633.98,111.79v-13.75l-7.77-7.97h-33.29l-7.77,7.97v13.75h48.83Z"/>
        <path class="cls-57" d="M676.24,142.69l72.55-69.96v-16.15l-8.77-8.77h-36.67l-8.77,8.77v11.76h-19.13v-17.94l19.33-19.33h53.82l19.33,19.33v27.9l-72.15,69.16v6.58h72.95v16.54h-92.48v-27.9Z"/>
        <path class="cls-57" d="M790.65,149.66V52l20.93-20.93h59l20.93,20.93v97.67l-20.93,20.93h-59l-20.93-20.93ZM861.8,153.85l10.56-10.56V58.37l-10.56-10.56h-41.46l-10.56,10.56v84.91l10.56,10.56h41.46Z"/>
        <path class="cls-57" d="M914.22,142.69l72.55-69.96v-16.15l-8.77-8.77h-36.67l-8.77,8.77v11.76h-19.13v-17.94l19.33-19.33h53.82l19.33,19.33v27.9l-72.15,69.16v6.58h72.95v16.54h-92.48v-27.9Z"/>
      </g>
      <g>
        <g class="cls-1">
          <polygon class="cls-126" points="210.33 1.6 207.1 -.72 210.33 -.72 210.33 1.6"/>
          <polygon class="cls-127" points="210.33 4.03 203.73 -.72 207.1 -.72 210.33 1.6 210.33 4.03"/>
          <polygon class="cls-125" points="210.33 6.45 200.35 -.72 203.73 -.72 210.33 4.03 210.33 6.45"/>
          <polygon class="cls-124" points="210.33 8.88 196.98 -.72 200.35 -.72 210.33 6.45 210.33 8.88"/>
          <polygon class="cls-129" points="210.33 11.31 193.61 -.72 196.98 -.72 210.33 8.88 210.33 11.31"/>
          <polygon class="cls-132" points="210.33 13.73 190.23 -.72 193.61 -.72 210.33 11.31 210.33 13.73"/>
          <polygon class="cls-123" points="210.33 16.16 186.86 -.72 190.23 -.72 210.33 13.73 210.33 16.16"/>
          <polygon class="cls-130" points="210.33 18.59 183.49 -.72 186.86 -.72 210.33 16.16 210.33 18.59"/>
          <polygon class="cls-122" points="210.33 21.01 180.11 -.72 183.49 -.72 210.33 18.59 210.33 21.01"/>
          <polygon class="cls-128" points="210.33 23.44 176.74 -.72 180.11 -.72 210.33 21.01 210.33 23.44"/>
          <polygon class="cls-131" points="210.33 25.87 173.37 -.72 176.74 -.72 210.33 23.44 210.33 25.87"/>
          <polygon class="cls-135" points="210.33 28.29 169.99 -.72 173.37 -.72 210.33 25.87 210.33 28.29"/>
          <polygon class="cls-136" points="210.33 30.72 166.62 -.72 169.99 -.72 210.33 28.29 210.33 30.72"/>
          <polygon class="cls-141" points="210.33 33.14 163.24 -.72 166.62 -.72 210.33 30.72 210.33 33.14"/>
          <polygon class="cls-69" points="210.33 35.57 159.87 -.72 163.24 -.72 210.33 33.14 210.33 35.57"/>
          <polygon class="cls-68" points="210.33 38 156.5 -.72 159.87 -.72 210.33 35.57 210.33 38"/>
          <polygon class="cls-134" points="210.33 40.42 153.12 -.72 156.5 -.72 210.33 38 210.33 40.42"/>
          <polygon class="cls-133" points="210.33 42.85 149.75 -.72 153.12 -.72 210.33 40.42 210.33 42.85"/>
          <polygon class="cls-70" points="210.33 45.28 146.38 -.72 149.75 -.72 210.33 42.85 210.33 45.28"/>
          <polygon class="cls-58" points="210.33 47.7 143 -.72 146.38 -.72 210.33 45.28 210.33 47.7"/>
          <polygon class="cls-115" points="210.33 50.13 139.63 -.72 143 -.72 210.33 47.7 210.33 50.13"/>
          <polygon class="cls-79" points="210.33 52.56 136.26 -.72 139.63 -.72 210.33 50.13 210.33 52.56"/>
          <polygon class="cls-76" points="210.33 54.98 132.88 -.72 136.26 -.72 210.33 52.56 210.33 54.98"/>
          <polygon class="cls-86" points="210.33 57.41 129.51 -.72 132.88 -.72 210.33 54.98 210.33 57.41"/>
          <polygon class="cls-86" points="210.33 59.83 126.14 -.72 129.51 -.72 210.33 57.41 210.33 59.83"/>
          <polygon class="cls-108" points="210.33 62.26 122.76 -.72 126.14 -.72 210.33 59.83 210.33 62.26"/>
          <polygon class="cls-74" points="210.33 64.69 119.39 -.72 122.76 -.72 210.33 62.26 210.33 64.69"/>
          <polygon class="cls-72" points="210.33 67.11 116.01 -.72 119.39 -.72 210.33 64.69 210.33 67.11"/>
          <polygon class="cls-34" points="210.33 69.54 112.64 -.72 116.01 -.72 210.33 67.11 210.33 69.54"/>
          <polygon class="cls-33" points="210.33 71.97 109.27 -.72 112.64 -.72 210.33 69.54 210.33 71.97"/>
          <polygon class="cls-35" points="210.33 74.39 105.89 -.72 109.27 -.72 210.33 71.97 210.33 74.39"/>
          <polygon class="cls-47" points="210.33 76.82 102.52 -.72 105.89 -.72 210.33 74.39 210.33 76.82"/>
          <polygon class="cls-48" points="210.33 79.25 99.15 -.72 102.52 -.72 210.33 76.82 210.33 79.25"/>
          <polygon class="cls-44" points="210.33 81.67 95.77 -.72 99.15 -.72 210.33 79.25 210.33 81.67"/>
          <polygon class="cls-45" points="210.33 84.1 92.4 -.72 95.77 -.72 210.33 81.67 210.33 84.1"/>
          <polygon class="cls-46" points="210.33 86.52 89.03 -.72 92.4 -.72 210.33 84.1 210.33 86.52"/>
          <polygon class="cls-26" points="210.33 88.95 85.65 -.72 89.03 -.72 210.33 86.52 210.33 88.95"/>
          <polygon class="cls-25" points="210.33 91.38 82.28 -.72 85.65 -.72 210.33 88.95 210.33 91.38"/>
          <polygon class="cls-37" points="210.33 93.8 78.9 -.72 82.28 -.72 210.33 91.38 210.33 93.8"/>
          <polygon class="cls-59" points="210.33 96.23 75.53 -.72 78.9 -.72 210.33 93.8 210.33 96.23"/>
          <polygon class="cls-61" points="210.33 98.66 72.16 -.72 75.53 -.72 210.33 96.23 210.33 98.66"/>
          <polygon class="cls-62" points="210.33 101.08 68.78 -.72 72.16 -.72 210.33 98.66 210.33 101.08"/>
          <polygon class="cls-63" points="210.33 103.51 65.41 -.72 68.78 -.72 210.33 101.08 210.33 103.51"/>
          <polygon class="cls-71" points="210.33 105.94 62.04 -.72 65.41 -.72 210.33 103.51 210.33 105.94"/>
          <polygon class="cls-67" points="210.33 108.36 58.66 -.72 62.04 -.72 210.33 105.94 210.33 108.36"/>
          <polygon class="cls-102" points="210.33 110.79 55.29 -.72 58.66 -.72 210.33 108.36 210.33 110.79"/>
          <polygon class="cls-60" points="210.33 113.21 51.92 -.72 55.29 -.72 210.33 110.79 210.33 113.21"/>
          <polygon class="cls-98" points="210.33 114.27 209.68 115.17 48.7 -.61 48.78 -.72 51.92 -.72 210.33 113.21 210.33 114.27"/>
          <rect class="cls-96" x="127.63" y="-41.07" width="1.97" height="198.3" transform="translate(6.36 128.58) rotate(-54.28)"/>
          <rect class="cls-65" x="126.48" y="-39.47" width="1.97" height="198.3" transform="translate(4.59 128.31) rotate(-54.28)"/>
          <rect class="cls-66" x="125.33" y="-37.87" width="1.97" height="198.3" transform="translate(2.81 128.04) rotate(-54.28)"/>
          <rect class="cls-97" x="124.18" y="-36.27" width="1.97" height="198.3" transform="translate(1.03 127.78) rotate(-54.28)"/>
          <rect class="cls-100" x="123.03" y="-34.67" width="1.97" height="198.3" transform="translate(-.74 127.51) rotate(-54.28)"/>
          <rect class="cls-138" x="121.88" y="-33.07" width="1.97" height="198.3" transform="translate(-2.52 127.24) rotate(-54.28)"/>
          <rect class="cls-137" x="120.73" y="-31.47" width="1.97" height="198.3" transform="translate(-4.3 126.97) rotate(-54.28)"/>
          <rect class="cls-77" x="119.58" y="-29.87" width="1.97" height="198.3" transform="translate(-6.07 126.7) rotate(-54.28)"/>
          <rect class="cls-81" x="118.43" y="-28.27" width="1.97" height="198.3" transform="translate(-7.85 126.43) rotate(-54.28)"/>
          <rect class="cls-82" x="117.28" y="-26.67" width="1.97" height="198.3" transform="translate(-9.63 126.17) rotate(-54.28)"/>
          <rect class="cls-110" x="116.13" y="-25.07" width="1.97" height="198.3" transform="translate(-11.4 125.9) rotate(-54.28)"/>
          <rect class="cls-106" x="114.98" y="-23.47" width="1.97" height="198.3" transform="translate(-13.18 125.63) rotate(-54.28)"/>
          <rect class="cls-105" x="113.83" y="-21.88" width="1.97" height="198.3" transform="translate(-14.96 125.36) rotate(-54.28)"/>
          <rect class="cls-28" x="112.68" y="-20.28" width="1.97" height="198.3" transform="translate(-16.74 125.09) rotate(-54.28)"/>
          <rect class="cls-27" x="111.53" y="-18.68" width="1.97" height="198.3" transform="translate(-18.51 124.82) rotate(-54.28)"/>
          <rect class="cls-30" x="110.38" y="-17.08" width="1.97" height="198.3" transform="translate(-20.29 124.56) rotate(-54.28)"/>
          <rect class="cls-29" x="109.23" y="-15.48" width="1.97" height="198.3" transform="translate(-22.07 124.29) rotate(-54.28)"/>
          <rect class="cls-21" x="108.07" y="-13.88" width="1.97" height="198.3" transform="translate(-23.84 124.02) rotate(-54.28)"/>
          <rect class="cls-43" x="106.92" y="-12.28" width="1.97" height="198.3" transform="translate(-25.62 123.75) rotate(-54.28)"/>
          <rect class="cls-101" x="105.77" y="-10.68" width="1.97" height="198.3" transform="translate(-27.4 123.48) rotate(-54.28)"/>
          <rect class="cls-89" x="104.62" y="-9.08" width="1.97" height="198.3" transform="translate(-29.17 123.21) rotate(-54.28)"/>
          <rect class="cls-90" x="103.47" y="-7.48" width="1.97" height="198.3" transform="translate(-30.95 122.95) rotate(-54.28)"/>
          <rect class="cls-91" x="102.32" y="-5.88" width="1.97" height="198.3" transform="translate(-32.73 122.68) rotate(-54.28)"/>
          <rect class="cls-99" x="101.17" y="-4.28" width="1.97" height="198.3" transform="translate(-34.5 122.41) rotate(-54.28)"/>
          <rect class="cls-92" x="100.02" y="-2.69" width="1.97" height="198.3" transform="translate(-36.28 122.14) rotate(-54.28)"/>
          <rect class="cls-93" x="98.87" y="-1.09" width="1.97" height="198.3" transform="translate(-38.06 121.87) rotate(-54.28)"/>
          <rect class="cls-94" x="97.72" y=".51" width="1.97" height="198.3" transform="translate(-39.83 121.6) rotate(-54.28)"/>
          <rect class="cls-64" x="96.57" y="2.11" width="1.97" height="198.3" transform="translate(-41.61 121.34) rotate(-54.28)"/>
          <rect class="cls-95" x="95.42" y="3.71" width="1.97" height="198.3" transform="translate(-43.39 121.07) rotate(-54.28)"/>
          <rect class="cls-139" x="94.27" y="5.31" width="1.97" height="198.3" transform="translate(-45.16 120.8) rotate(-54.28)"/>
          <rect class="cls-75" x="93.12" y="6.91" width="1.97" height="198.3" transform="translate(-46.94 120.53) rotate(-54.28)"/>
          <rect class="cls-88" x="91.97" y="8.51" width="1.97" height="198.3" transform="translate(-48.72 120.26) rotate(-54.28)"/>
          <rect class="cls-103" x="90.82" y="10.11" width="1.97" height="198.3" transform="translate(-50.5 119.99) rotate(-54.28)"/>
          <rect class="cls-104" x="89.67" y="11.71" width="1.97" height="198.3" transform="translate(-52.27 119.73) rotate(-54.28)"/>
          <rect class="cls-31" x="88.52" y="13.31" width="1.97" height="198.3" transform="translate(-54.05 119.46) rotate(-54.28)"/>
          <rect class="cls-39" x="87.37" y="14.91" width="1.97" height="198.3" transform="translate(-55.83 119.19) rotate(-54.28)"/>
          <rect class="cls-38" x="86.22" y="16.5" width="1.97" height="198.3" transform="translate(-57.6 118.92) rotate(-54.28)"/>
          <rect class="cls-113" x="85.07" y="18.1" width="1.97" height="198.3" transform="translate(-59.38 118.65) rotate(-54.28)"/>
          <rect class="cls-112" x="83.92" y="19.7" width="1.97" height="198.3" transform="translate(-61.16 118.39) rotate(-54.28)"/>
          <rect class="cls-116" x="82.77" y="21.3" width="1.97" height="198.3" transform="translate(-62.93 118.12) rotate(-54.28)"/>
          <rect class="cls-119" x="81.62" y="22.9" width="1.97" height="198.3" transform="translate(-64.71 117.85) rotate(-54.28)"/>
          <rect class="cls-143" x="80.47" y="24.5" width="1.97" height="198.3" transform="translate(-66.49 117.58) rotate(-54.28)"/>
          <rect class="cls-118" x="79.32" y="26.1" width="1.97" height="198.3" transform="translate(-68.26 117.31) rotate(-54.28)"/>
          <rect class="cls-111" x="78.17" y="27.7" width="1.97" height="198.3" transform="translate(-70.04 117.04) rotate(-54.28)"/>
          <rect class="cls-117" x="77.02" y="29.3" width="1.97" height="198.3" transform="translate(-71.82 116.78) rotate(-54.28)"/>
          <polygon class="cls-85" points="157.92 187.14 156.77 188.74 -4.06 73.06 -4.06 72.75 -3.06 71.35 157.92 187.14"/>
          <polygon class="cls-84" points="156.77 188.74 156.09 189.69 154.72 189.69 -4.06 75.49 -4.06 73.06 156.77 188.74"/>
          <polygon class="cls-107" points="151.35 189.69 -4.06 77.91 -4.06 75.49 154.72 189.69 151.35 189.69"/>
          <polygon class="cls-140" points="147.97 189.69 -4.06 80.34 -4.06 77.91 151.35 189.69 147.97 189.69"/>
          <polygon class="cls-73" points="144.6 189.69 -4.06 82.76 -4.06 80.34 147.97 189.69 144.6 189.69"/>
          <polygon class="cls-40" points="141.23 189.69 -4.06 85.19 -4.06 82.76 144.6 189.69 141.23 189.69"/>
          <polygon class="cls-142" points="137.85 189.69 -4.06 87.62 -4.06 85.19 141.23 189.69 137.85 189.69"/>
          <polygon class="cls-120" points="134.48 189.69 -4.06 90.04 -4.06 87.62 137.85 189.69 134.48 189.69"/>
          <polygon class="cls-114" points="131.11 189.69 -4.06 92.47 -4.06 90.04 134.48 189.69 131.11 189.69"/>
          <polygon class="cls-121" points="127.73 189.69 -4.06 94.9 -4.06 92.47 131.11 189.69 127.73 189.69"/>
          <polygon class="cls-80" points="124.36 189.69 -4.06 97.32 -4.06 94.9 127.73 189.69 124.36 189.69"/>
          <polygon class="cls-78" points="120.98 189.69 -4.06 99.75 -4.06 97.32 124.36 189.69 120.98 189.69"/>
          <polygon class="cls-87" points="117.61 189.69 -4.06 102.18 -4.06 99.75 120.98 189.69 117.61 189.69"/>
          <polygon class="cls-83" points="114.24 189.69 -4.06 104.6 -4.06 102.18 117.61 189.69 114.24 189.69"/>
          <polygon class="cls-109" points="110.86 189.69 -4.06 107.03 -4.06 104.6 114.24 189.69 110.86 189.69"/>
          <polygon class="cls-9" points="107.49 189.69 -4.06 109.46 -4.06 107.03 110.86 189.69 107.49 189.69"/>
          <polygon class="cls-8" points="104.12 189.69 -4.06 111.88 -4.06 109.46 107.49 189.69 104.12 189.69"/>
          <polygon class="cls-7" points="100.74 189.69 -4.06 114.31 -4.06 111.88 104.12 189.69 100.74 189.69"/>
          <polygon class="cls-6" points="97.37 189.69 -4.06 116.73 -4.06 114.31 100.74 189.69 97.37 189.69"/>
          <polygon class="cls-12" points="94 189.69 -4.06 119.16 -4.06 116.73 97.37 189.69 94 189.69"/>
          <polygon class="cls-10" points="90.62 189.69 -4.06 121.59 -4.06 119.16 94 189.69 90.62 189.69"/>
          <polygon class="cls-11" points="87.25 189.69 -4.06 124.01 -4.06 121.59 90.62 189.69 87.25 189.69"/>
          <polygon class="cls-4" points="83.88 189.69 -4.06 126.44 -4.06 124.01 87.25 189.69 83.88 189.69"/>
          <polygon class="cls-5" points="80.5 189.69 -4.06 128.87 -4.06 126.44 83.88 189.69 80.5 189.69"/>
          <polygon class="cls-16" points="77.13 189.69 -4.06 131.29 -4.06 128.87 80.5 189.69 77.13 189.69"/>
          <polygon class="cls-19" points="73.75 189.69 -4.06 133.72 -4.06 131.29 77.13 189.69 73.75 189.69"/>
          <polygon class="cls-20" points="70.38 189.69 -4.06 136.15 -4.06 133.72 73.75 189.69 70.38 189.69"/>
          <polygon class="cls-17" points="67.01 189.69 -4.06 138.57 -4.06 136.15 70.38 189.69 67.01 189.69"/>
          <polygon class="cls-18" points="63.63 189.69 -4.06 141 -4.06 138.57 67.01 189.69 63.63 189.69"/>
          <polygon class="cls-32" points="60.26 189.69 -4.06 143.42 -4.06 141 63.63 189.69 60.26 189.69"/>
          <polygon class="cls-42" points="56.89 189.69 -4.06 145.85 -4.06 143.42 60.26 189.69 56.89 189.69"/>
          <polygon class="cls-41" points="53.51 189.69 -4.06 148.28 -4.06 145.85 56.89 189.69 53.51 189.69"/>
          <polygon class="cls-36" points="50.14 189.69 -4.06 150.7 -4.06 148.28 53.51 189.69 50.14 189.69"/>
          <polygon class="cls-53" points="46.77 189.69 -4.06 153.13 -4.06 150.7 50.14 189.69 46.77 189.69"/>
          <polygon class="cls-52" points="43.39 189.69 -4.06 155.56 -4.06 153.13 46.77 189.69 43.39 189.69"/>
          <polygon class="cls-51" points="40.02 189.69 -4.06 157.98 -4.06 155.56 43.39 189.69 40.02 189.69"/>
          <polygon class="cls-50" points="36.64 189.69 -4.06 160.41 -4.06 157.98 40.02 189.69 36.64 189.69"/>
          <polygon class="cls-49" points="33.27 189.69 -4.06 162.84 -4.06 160.41 36.64 189.69 33.27 189.69"/>
          <polygon class="cls-15" points="29.9 189.69 -4.06 165.26 -4.06 162.84 33.27 189.69 29.9 189.69"/>
          <polygon class="cls-14" points="26.52 189.69 -4.06 167.69 -4.06 165.26 29.9 189.69 26.52 189.69"/>
          <polygon class="cls-56" points="23.15 189.69 -4.06 170.11 -4.06 167.69 26.52 189.69 23.15 189.69"/>
          <polygon class="cls-55" points="19.78 189.69 -4.06 172.54 -4.06 170.11 23.15 189.69 19.78 189.69"/>
          <polygon class="cls-54" points="16.4 189.69 -4.06 174.97 -4.06 172.54 19.78 189.69 16.4 189.69"/>
          <polygon class="cls-3" points="13.03 189.69 -4.06 177.39 -4.06 174.97 16.4 189.69 13.03 189.69"/>
          <polygon class="cls-24" points="9.66 189.69 -4.06 179.82 -4.06 177.39 13.03 189.69 9.66 189.69"/>
          <polygon class="cls-22" points="6.28 189.69 -4.06 182.25 -4.06 179.82 9.66 189.69 6.28 189.69"/>
          <polygon class="cls-23" points="2.91 189.69 -4.06 184.67 -4.06 182.25 6.28 189.69 2.91 189.69"/>
          <polygon class="cls-13" points="-.46 189.69 -4.06 187.1 -4.06 184.67 2.91 189.69 -.46 189.69"/>
        </g>
        <g class="cls-144">
          <polygon class="cls-65" points="209.64 120 208.4 119.1 209.64 119.1 209.64 120"/>
          <polygon class="cls-66" points="209.64 122.43 205.02 119.1 208.4 119.1 209.64 120 209.64 122.43"/>
          <polygon class="cls-97" points="209.64 124.85 201.65 119.1 205.02 119.1 209.64 122.43 209.64 124.85"/>
          <polygon class="cls-100" points="209.64 127.28 198.27 119.1 201.65 119.1 209.64 124.85 209.64 127.28"/>
          <polygon class="cls-138" points="209.64 129.7 194.9 119.1 198.27 119.1 209.64 127.28 209.64 129.7"/>
          <polygon class="cls-137" points="209.64 132.13 191.53 119.1 194.9 119.1 209.64 129.7 209.64 132.13"/>
          <polygon class="cls-77" points="209.64 134.56 188.15 119.1 191.53 119.1 209.64 132.13 209.64 134.56"/>
          <polygon class="cls-81" points="209.64 136.98 184.78 119.1 188.15 119.1 209.64 134.56 209.64 136.98"/>
          <polygon class="cls-82" points="209.64 139.41 181.41 119.1 184.78 119.1 209.64 136.98 209.64 139.41"/>
          <polygon class="cls-110" points="209.64 141.84 178.03 119.1 181.41 119.1 209.64 139.41 209.64 141.84"/>
          <polygon class="cls-106" points="209.64 143.55 209.3 144.02 174.66 119.1 178.03 119.1 209.64 141.84 209.64 143.55"/>
          <polygon class="cls-105" points="209.3 144.02 208.15 145.62 171.29 119.1 174.66 119.1 209.3 144.02"/>
          <polygon class="cls-28" points="208.15 145.62 207 147.22 167.91 119.1 171.29 119.1 208.15 145.62"/>
          <polygon class="cls-27" points="207 147.22 205.85 148.82 164.54 119.1 167.91 119.1 207 147.22"/>
          <polygon class="cls-30" points="205.85 148.82 204.7 150.42 161.16 119.1 164.54 119.1 205.85 148.82"/>
          <polygon class="cls-29" points="204.7 150.42 203.55 152.02 157.79 119.1 161.16 119.1 204.7 150.42"/>
          <polygon class="cls-21" points="203.55 152.02 202.4 153.61 154.42 119.1 157.79 119.1 203.55 152.02"/>
          <polygon class="cls-43" points="202.4 153.61 201.25 155.21 151.04 119.1 154.42 119.1 202.4 153.61"/>
          <polygon class="cls-101" points="201.25 155.21 200.1 156.81 147.67 119.1 151.04 119.1 201.25 155.21"/>
          <polygon class="cls-89" points="200.1 156.81 198.95 158.41 145.97 120.31 146.84 119.1 147.67 119.1 200.1 156.81"/>
          <rect class="cls-90" x="170.9" y="107.53" width="1.97" height="65.25" transform="translate(-42.26 197.87) rotate(-54.28)"/>
          <rect class="cls-91" x="169.75" y="109.13" width="1.97" height="65.25" transform="translate(-44.04 197.6) rotate(-54.28)"/>
          <rect class="cls-99" x="168.6" y="110.73" width="1.97" height="65.25" transform="translate(-45.82 197.33) rotate(-54.28)"/>
          <rect class="cls-92" x="167.45" y="112.33" width="1.97" height="65.25" transform="translate(-47.59 197.06) rotate(-54.28)"/>
          <rect class="cls-93" x="166.3" y="113.93" width="1.97" height="65.25" transform="translate(-49.37 196.79) rotate(-54.28)"/>
          <rect class="cls-94" x="165.15" y="115.53" width="1.97" height="65.25" transform="translate(-51.15 196.52) rotate(-54.28)"/>
          <rect class="cls-64" x="164" y="117.13" width="1.97" height="65.25" transform="translate(-52.92 196.26) rotate(-54.28)"/>
          <rect class="cls-95" x="162.85" y="118.73" width="1.97" height="65.25" transform="translate(-54.7 195.99) rotate(-54.28)"/>
          <rect class="cls-139" x="161.7" y="120.33" width="1.97" height="65.25" transform="translate(-56.48 195.72) rotate(-54.28)"/>
          <rect class="cls-75" x="160.55" y="121.93" width="1.97" height="65.25" transform="translate(-58.25 195.45) rotate(-54.28)"/>
          <rect class="cls-88" x="159.4" y="123.53" width="1.97" height="65.25" transform="translate(-60.03 195.18) rotate(-54.28)"/>
          <rect class="cls-103" x="158.25" y="125.12" width="1.97" height="65.25" transform="translate(-61.81 194.91) rotate(-54.28)"/>
          <rect class="cls-104" x="157.1" y="126.72" width="1.97" height="65.25" transform="translate(-63.59 194.65) rotate(-54.28)"/>
          <rect class="cls-31" x="155.95" y="128.32" width="1.97" height="65.25" transform="translate(-65.36 194.38) rotate(-54.28)"/>
          <rect class="cls-39" x="154.8" y="129.92" width="1.97" height="65.25" transform="translate(-67.14 194.11) rotate(-54.28)"/>
          <rect class="cls-38" x="153.65" y="131.52" width="1.97" height="65.25" transform="translate(-68.92 193.84) rotate(-54.28)"/>
          <rect class="cls-113" x="152.5" y="133.12" width="1.97" height="65.25" transform="translate(-70.69 193.57) rotate(-54.28)"/>
          <rect class="cls-112" x="151.35" y="134.72" width="1.97" height="65.25" transform="translate(-72.47 193.31) rotate(-54.28)"/>
          <rect class="cls-116" x="150.2" y="136.32" width="1.97" height="65.25" transform="translate(-74.25 193.04) rotate(-54.28)"/>
          <rect class="cls-119" x="149.05" y="137.92" width="1.97" height="65.25" transform="translate(-76.02 192.77) rotate(-54.28)"/>
          <rect class="cls-143" x="147.9" y="139.52" width="1.97" height="65.25" transform="translate(-77.8 192.5) rotate(-54.28)"/>
          <rect class="cls-118" x="146.75" y="141.12" width="1.97" height="65.25" transform="translate(-79.58 192.23) rotate(-54.28)"/>
          <rect class="cls-111" x="145.6" y="142.72" width="1.97" height="65.25" transform="translate(-81.35 191.96) rotate(-54.28)"/>
          <rect class="cls-117" x="144.45" y="144.31" width="1.97" height="65.25" transform="translate(-83.13 191.7) rotate(-54.28)"/>
          <rect class="cls-85" x="143.3" y="145.91" width="1.97" height="65.25" transform="translate(-84.91 191.43) rotate(-54.28)"/>
          <rect class="cls-84" x="142.15" y="147.51" width="1.97" height="65.25" transform="translate(-86.68 191.16) rotate(-54.28)"/>
          <rect class="cls-107" x="141" y="149.11" width="1.97" height="65.25" transform="translate(-88.46 190.89) rotate(-54.28)"/>
          <rect class="cls-140" x="139.85" y="150.71" width="1.97" height="65.25" transform="translate(-90.24 190.62) rotate(-54.28)"/>
          <rect class="cls-73" x="138.7" y="152.31" width="1.97" height="65.25" transform="translate(-92.01 190.35) rotate(-54.28)"/>
          <rect class="cls-40" x="137.55" y="153.91" width="1.97" height="65.25" transform="translate(-93.79 190.09) rotate(-54.28)"/>
          <rect class="cls-142" x="136.4" y="155.51" width="1.97" height="65.25" transform="translate(-95.57 189.82) rotate(-54.28)"/>
          <rect class="cls-120" x="135.25" y="157.11" width="1.97" height="65.25" transform="translate(-97.35 189.55) rotate(-54.28)"/>
          <polygon class="cls-114" points="162.15 209.58 161.32 210.73 160.36 210.73 108.02 173.08 109.17 171.48 162.15 209.58"/>
          <polygon class="cls-121" points="156.99 210.73 106.87 174.68 108.02 173.08 160.36 210.73 156.99 210.73"/>
          <polygon class="cls-80" points="153.61 210.73 105.72 176.28 106.87 174.68 156.99 210.73 153.61 210.73"/>
          <polygon class="cls-78" points="150.24 210.73 104.57 177.88 105.72 176.28 153.61 210.73 150.24 210.73"/>
          <polygon class="cls-87" points="146.87 210.73 103.42 179.48 104.57 177.88 150.24 210.73 146.87 210.73"/>
          <polygon class="cls-83" points="143.49 210.73 102.27 181.08 103.42 179.48 146.87 210.73 143.49 210.73"/>
          <polygon class="cls-109" points="140.12 210.73 101.12 182.68 102.27 181.08 143.49 210.73 140.12 210.73"/>
          <polygon class="cls-9" points="136.74 210.73 99.97 184.28 101.12 182.68 140.12 210.73 136.74 210.73"/>
          <polygon class="cls-8" points="133.37 210.73 98.82 185.88 99.97 184.28 136.74 210.73 133.37 210.73"/>
          <polygon class="cls-7" points="130 210.73 97.67 187.48 98.82 185.88 133.37 210.73 130 210.73"/>
          <polygon class="cls-6" points="126.62 210.73 96.52 189.07 97.67 187.48 130 210.73 126.62 210.73"/>
          <polygon class="cls-12" points="123.25 210.73 95.37 190.67 96.52 189.07 126.62 210.73 123.25 210.73"/>
          <polygon class="cls-10" points="119.88 210.73 94.22 192.27 95.37 190.67 123.25 210.73 119.88 210.73"/>
          <polygon class="cls-11" points="116.5 210.73 93.07 193.87 94.22 192.27 119.88 210.73 116.5 210.73"/>
          <polygon class="cls-4" points="113.13 210.73 91.92 195.47 93.07 193.87 116.5 210.73 113.13 210.73"/>
          <polygon class="cls-5" points="109.76 210.73 90.77 197.07 91.92 195.47 113.13 210.73 109.76 210.73"/>
          <polygon class="cls-16" points="106.38 210.73 89.62 198.67 90.77 197.07 109.76 210.73 106.38 210.73"/>
          <polygon class="cls-19" points="103.01 210.73 88.47 200.27 89.62 198.67 106.38 210.73 103.01 210.73"/>
          <polygon class="cls-20" points="99.63 210.73 87.32 201.87 88.47 200.27 103.01 210.73 99.63 210.73"/>
          <polygon class="cls-17" points="96.26 210.73 86.17 203.47 87.32 201.87 99.63 210.73 96.26 210.73"/>
          <polygon class="cls-18" points="92.89 210.73 85.15 205.16 85.15 204.88 86.17 203.47 96.26 210.73 92.89 210.73"/>
          <polygon class="cls-32" points="89.51 210.73 85.15 207.59 85.15 205.16 92.89 210.73 89.51 210.73"/>
          <polygon class="cls-42" points="86.14 210.73 85.15 210.02 85.15 207.59 89.51 210.73 86.14 210.73"/>
          <polygon class="cls-41" points="85.15 210.02 86.14 210.73 85.15 210.73 85.15 210.02"/>
        </g>
        <g class="cls-145">
          <polygon class="cls-135" points="198.8 20 198.26 19.61 198.8 19.61 198.8 20"/>
          <polygon class="cls-136" points="198.8 22.43 194.89 19.61 198.26 19.61 198.8 20 198.8 22.43"/>
          <polygon class="cls-141" points="198.8 24.86 191.51 19.61 194.89 19.61 198.8 22.43 198.8 24.86"/>
          <polygon class="cls-69" points="198.8 27.28 188.14 19.61 191.51 19.61 198.8 24.86 198.8 27.28"/>
          <polygon class="cls-68" points="198.8 29.71 184.77 19.61 188.14 19.61 198.8 27.28 198.8 29.71"/>
          <polygon class="cls-134" points="198.8 32.14 181.39 19.61 184.77 19.61 198.8 29.71 198.8 32.14"/>
          <polygon class="cls-133" points="198.8 34.56 178.02 19.61 181.39 19.61 198.8 32.14 198.8 34.56"/>
          <polygon class="cls-70" points="198.8 36.99 174.65 19.61 178.02 19.61 198.8 34.56 198.8 36.99"/>
          <polygon class="cls-58" points="198.8 39.41 171.27 19.61 174.65 19.61 198.8 36.99 198.8 39.41"/>
          <polygon class="cls-115" points="198.8 41.84 167.9 19.61 171.27 19.61 198.8 39.41 198.8 41.84"/>
          <polygon class="cls-79" points="198.8 44.27 164.53 19.61 167.9 19.61 198.8 41.84 198.8 44.27"/>
          <polygon class="cls-76" points="198.8 46.69 161.15 19.61 164.53 19.61 198.8 44.27 198.8 46.69"/>
          <polygon class="cls-86" points="198.8 49.12 157.78 19.61 161.15 19.61 198.8 46.69 198.8 49.12"/>
          <polygon class="cls-86" points="198.8 51.55 154.41 19.61 157.78 19.61 198.8 49.12 198.8 51.55"/>
          <polygon class="cls-108" points="198.8 53.97 151.03 19.61 154.41 19.61 198.8 51.55 198.8 53.97"/>
          <polygon class="cls-74" points="198.8 56.4 147.66 19.61 151.03 19.61 198.8 53.97 198.8 56.4"/>
          <polygon class="cls-72" points="198.8 58.83 144.28 19.61 147.66 19.61 198.8 56.4 198.8 58.83"/>
          <polygon class="cls-34" points="198.8 61.25 140.91 19.61 144.28 19.61 198.8 58.83 198.8 61.25"/>
          <polygon class="cls-33" points="198.8 63.68 137.54 19.61 140.91 19.61 198.8 61.25 198.8 63.68"/>
          <polygon class="cls-35" points="198.8 66.1 134.16 19.61 137.54 19.61 198.8 63.68 198.8 66.1"/>
          <polygon class="cls-47" points="198.8 68.53 130.79 19.61 134.16 19.61 198.8 66.1 198.8 68.53"/>
          <polygon class="cls-48" points="198.8 70.96 127.42 19.61 130.79 19.61 198.8 68.53 198.8 70.96"/>
          <polygon class="cls-44" points="198.8 73.38 124.04 19.61 127.42 19.61 198.8 70.96 198.8 73.38"/>
          <polygon class="cls-45" points="198.8 75.81 120.67 19.61 124.04 19.61 198.8 73.38 198.8 75.81"/>
          <polygon class="cls-46" points="198.8 78.24 117.3 19.61 120.67 19.61 198.8 75.81 198.8 78.24"/>
          <polygon class="cls-26" points="198.8 80.66 113.92 19.61 117.3 19.61 198.8 78.24 198.8 80.66"/>
          <polygon class="cls-25" points="198.8 83.09 110.55 19.61 113.92 19.61 198.8 80.66 198.8 83.09"/>
          <polygon class="cls-37" points="198.8 85.52 107.17 19.61 110.55 19.61 198.8 83.09 198.8 85.52"/>
          <polygon class="cls-59" points="198.8 87.94 103.8 19.61 107.17 19.61 198.8 85.52 198.8 87.94"/>
          <polygon class="cls-61" points="197.46 89.4 100.43 19.61 103.8 19.61 198.8 87.94 198.8 89.4 197.46 89.4"/>
          <polygon class="cls-62" points="194.09 89.4 97.05 19.61 100.43 19.61 197.46 89.4 194.09 89.4"/>
          <polygon class="cls-63" points="190.71 89.4 93.68 19.61 97.05 19.61 194.09 89.4 190.71 89.4"/>
          <polygon class="cls-71" points="187.34 89.4 90.31 19.61 93.68 19.61 190.71 89.4 187.34 89.4"/>
          <polygon class="cls-67" points="183.97 89.4 86.93 19.61 90.31 19.61 187.34 89.4 183.97 89.4"/>
          <polygon class="cls-102" points="180.59 89.4 83.56 19.61 86.93 19.61 183.97 89.4 180.59 89.4"/>
          <polygon class="cls-60" points="177.22 89.4 80.96 20.17 81.36 19.61 83.56 19.61 180.59 89.4 177.22 89.4"/>
          <polygon class="cls-98" points="173.85 89.4 79.81 21.77 80.96 20.17 177.22 89.4 173.85 89.4"/>
          <polygon class="cls-96" points="170.47 89.4 78.66 23.37 79.81 21.77 173.85 89.4 170.47 89.4"/>
          <polygon class="cls-65" points="167.1 89.4 77.51 24.97 78.66 23.37 170.47 89.4 167.1 89.4"/>
          <polygon class="cls-66" points="163.72 89.4 76.36 26.57 77.51 24.97 167.1 89.4 163.72 89.4"/>
          <polygon class="cls-97" points="160.35 89.4 75.21 28.17 76.36 26.57 163.72 89.4 160.35 89.4"/>
          <polygon class="cls-100" points="156.98 89.4 74.06 29.77 75.21 28.17 160.35 89.4 156.98 89.4"/>
          <polygon class="cls-138" points="153.6 89.4 72.91 31.36 74.06 29.77 156.98 89.4 153.6 89.4"/>
          <polygon class="cls-137" points="150.23 89.4 71.76 32.96 72.91 31.36 153.6 89.4 150.23 89.4"/>
          <polygon class="cls-77" points="146.86 89.4 70.61 34.56 71.76 32.96 150.23 89.4 146.86 89.4"/>
          <polygon class="cls-81" points="143.48 89.4 69.46 36.16 70.61 34.56 146.86 89.4 143.48 89.4"/>
          <polygon class="cls-82" points="140.11 89.4 68.31 37.76 69.46 36.16 143.48 89.4 140.11 89.4"/>
          <polygon class="cls-110" points="136.74 89.4 67.16 39.36 68.31 37.76 140.11 89.4 136.74 89.4"/>
          <polygon class="cls-106" points="133.36 89.4 66.01 40.96 67.16 39.36 136.74 89.4 133.36 89.4"/>
          <polygon class="cls-105" points="129.99 89.4 64.86 42.56 66.01 40.96 133.36 89.4 129.99 89.4"/>
          <polygon class="cls-28" points="126.61 89.4 63.71 44.16 64.86 42.56 129.99 89.4 126.61 89.4"/>
          <polygon class="cls-27" points="123.24 89.4 62.56 45.76 63.71 44.16 126.61 89.4 123.24 89.4"/>
          <polygon class="cls-30" points="119.87 89.4 61.41 47.36 62.56 45.76 123.24 89.4 119.87 89.4"/>
          <polygon class="cls-29" points="116.49 89.4 60.26 48.96 61.41 47.36 119.87 89.4 116.49 89.4"/>
          <polygon class="cls-21" points="113.12 89.4 59.11 50.55 60.26 48.96 116.49 89.4 113.12 89.4"/>
          <polygon class="cls-43" points="109.75 89.4 57.96 52.15 59.11 50.55 113.12 89.4 109.75 89.4"/>
          <polygon class="cls-101" points="106.37 89.4 56.81 53.75 57.96 52.15 109.75 89.4 106.37 89.4"/>
          <polygon class="cls-89" points="103 89.4 55.66 55.35 56.81 53.75 106.37 89.4 103 89.4"/>
          <polygon class="cls-90" points="99.63 89.4 54.51 56.95 55.66 55.35 103 89.4 99.63 89.4"/>
          <polygon class="cls-91" points="96.25 89.4 53.36 58.55 54.51 56.95 99.63 89.4 96.25 89.4"/>
          <polygon class="cls-99" points="92.88 89.4 52.21 60.15 53.36 58.55 96.25 89.4 92.88 89.4"/>
          <polygon class="cls-92" points="89.5 89.4 51.66 62.18 51.66 60.91 52.21 60.15 92.88 89.4 89.5 89.4"/>
          <polygon class="cls-93" points="86.13 89.4 51.66 64.61 51.66 62.18 89.5 89.4 86.13 89.4"/>
          <polygon class="cls-94" points="82.76 89.4 51.66 67.03 51.66 64.61 86.13 89.4 82.76 89.4"/>
          <polygon class="cls-64" points="79.38 89.4 51.66 69.46 51.66 67.03 82.76 89.4 79.38 89.4"/>
          <polygon class="cls-95" points="76.01 89.4 51.66 71.89 51.66 69.46 79.38 89.4 76.01 89.4"/>
          <polygon class="cls-139" points="72.64 89.4 51.66 74.31 51.66 71.89 76.01 89.4 72.64 89.4"/>
          <polygon class="cls-75" points="69.26 89.4 51.66 76.74 51.66 74.31 72.64 89.4 69.26 89.4"/>
          <polygon class="cls-88" points="65.89 89.4 51.66 79.17 51.66 76.74 69.26 89.4 65.89 89.4"/>
          <polygon class="cls-103" points="62.52 89.4 51.66 81.59 51.66 79.17 65.89 89.4 62.52 89.4"/>
          <polygon class="cls-104" points="59.14 89.4 51.66 84.02 51.66 81.59 62.52 89.4 59.14 89.4"/>
          <polygon class="cls-31" points="55.77 89.4 51.66 86.44 51.66 84.02 59.14 89.4 55.77 89.4"/>
          <polygon class="cls-39" points="52.4 89.4 51.66 88.87 51.66 86.44 55.77 89.4 52.4 89.4"/>
          <polygon class="cls-38" points="51.66 88.87 52.4 89.4 51.66 89.4 51.66 88.87"/>
        </g>
      </g>
    </g>
  </g>
</svg>