<?xml version="1.0" encoding="UTF-8"?>
<svg id="Layer_2" data-name="Layer 2" xmlns="http://www.w3.org/2000/svg" viewBox="0 0 1077.77 302.47">
  <defs>
    <style>
      .cls-1 {
        fill: #fff;
        font-size: 212.9px;
      }

      .cls-2 {
        font-family: ChakraPetch-Bold, 'Chakra Petch';
        font-weight: 700;
      }

      .cls-3 {
        font-family: ChakraPetch-Regular, 'Chakra Petch';
      }

      .cls-4 {
        fill: #f2f7f7;
        stroke-width: 0px;
      }
    </style>
  </defs>
  <g id="Layer_1-2" data-name="Layer 1">
    <g>
      <text class="cls-1" transform="translate(261.53 181.97)"><tspan class="cls-2" x="0" y="0">Blue</tspan><tspan class="cls-3" x="448.36" y="0">202</tspan></text>
      <g>
        <path class="cls-4" d="M107.62,176.83c5.68-3.01,10.58-7.05,15.26-11.38,3.7-2.88,7.06-6.13,10.4-9.4,4.31-4.23,8.77-8.3,12.76-12.84.98-1,1.88-2.08,2.94-2.99,6.13-5.29,11.86-11.04,18.16-16.13,12.75-9.51,26.12-17.04,43.19-13.22-9.9-15.76-27.41-20.07-44.51-12.03-7.8,3.35-14.59,8.35-21.53,13.1-.55.14-1.02.4-1.4.81-.05.03-.09.07-.13.13,0,0-.03.01-.03.01-.62.33-1.25.65-1.86,1-5.84,3.44-11.9,6.31-18.73,7.19-.71.02-1.42.05-2.13.06-5.64.07-10.88-1.43-13.66-6.55-2.73-5.04-2.59-10.62.3-15.78,1.44-2.56,3.66-4.49,6.1-6.13.71.16,1.19-.37,1.77-.6,6.01-2.39,11.7-1.79,17.08,1.79,1.7,1.13,3.09,2.63,4.54,4.31.3-1.58-.11-2.83-.3-4.07-1.97-13.2-12.21-21.36-23.04-23.22-3.25-.87-6.55-1.11-9.9-.9h0c-7.06-.06-13.61,1.74-19.68,5.32-3.19,1.64-6,3.82-8.51,6.35-11.2,11.34-16.08,24.86-13.86,40.78.98,7.05,3.82,13.34,7.79,19.19.3.44,1.33.83.45,1.64-1.3-.56-2.61-1.1-3.9-1.69-4.88-2.2-9.66-4.58-13.96-7.82,0,0,0,0,0,0-.59-.51-1.16-1.03-1.76-1.52-6.16-5.01-11.1-11-14.65-18.12-.24.05-.42.05-.57.01.14,0,.32,0,.57-.01-3.59-7.84-5.63-16.05-5.95-24.68-.47-12.58,1-24.83,6.13-36.47,3.79-7.98,8.88-15.06,14.78-21.6,3.91-4.33,8.41-8.01,12.77-11.84,3.95-2.72,7.94-5.38,12.14-7.7C88.27,4.34,102.74.53,118.3,1.1c1.24.82,2.54.38,3.84.11-1.3-.15-2.6-.29-3.9-.44h0c-12.62-1.49-25.12-.85-37.47,2.12-7.45,1.79-14.68,4.22-21.51,7.75-2.8,1.21-5.45,2.71-8.05,4.3-6.54,4.01-12.79,8.42-18.17,13.95-7.16,6.47-13.11,13.92-17.94,22.27-.28.4-.59.79-.83,1.22C-1.22,79.94-4.06,108.79,5.56,138.86c2.39,7.46,5.61,14.58,9.99,21.12,4.24,7.38,9.29,14.05,16.31,19.05,6.1,4.69,13,7.57,20.52,9.02,5.1.98,10.21,1.63,15.4,1.13.36.1.81.05,1.38-.16,4.8,0,9.48-.82,14.09-2.15h0c6.81-1.47,13.27-3.86,19.37-7.22,1.66-.95,3.31-1.93,5-2.83Z"/>
        <path class="cls-4" d="M207.93,119.31c-7.44,1.31-14.39,3.86-20.74,7.98-6.94,4.15-12.92,9.45-18.43,15.32-6.43,6.37-12.21,13.31-17.9,20.34-4.31,4.93-8.61,9.85-12.92,14.78-4.46,4.42-8.88,8.88-13.63,13-.29.2-.59.38-.86.6-10.32,8.32-21.77,14.23-34.99,16.34-.56.09-1.14.09-1.69.21-.53.11-1.23-.09-1.61.64,8.04,1.55,16.05,2.21,24.12,1.85,5.37-.24,10.75-.58,15.98-1.93.15-.03.31-.06.47-.12,4.51-.66,8.89-1.81,13.13-3.47,4.33-1.27,8.5-2.92,12.45-5.11,6.46-2.96,12.49-6.61,17.98-11.13h0c1.99-1.15,3.63-2.74,5.33-4.25,4.95-4.4,9.66-9.04,13.51-14.48-.12-.19-.23-.38-.32-.57.13.15.22.37.32.57,1.28-1.72,2.59-3.42,3.83-5.17,9.4-13.25,14.89-28.06,17.47-44.02.22-1.38-.3-1.58-1.49-1.37Z"/>
        <path class="cls-4" d="M91.75,27.17c-5.66,2.28-10.74,5.51-15.41,9.4-.35.23-.73.43-1.06.7-10.31,8.55-17.82,19.07-22.3,31.72-.54,1.52-1.23,3.02-1.33,5.08,3-3.56,5.85-6.72,8.98-9.62,4.83-4.47,10.3-8.02,15.86-11.48h0c4.82-2.46,9.84-4.44,14.87-6.41,4.71-1.14,9.42-2.28,14.12-3.42,6.53-.8,13.07-1.2,19.65-1.01,5.17.31,10.29.97,15.37,2,0,0,0,0,0,0,5.43,1.19,10.68,2.95,15.88,4.88h0c5.76,2.59,11.27,5.63,16.53,9.13h0c.55.44,1.09.9,1.66,1.32,10.12,7.65,18.05,17.08,23.29,28.7.2.45.16,1.11.93,1.25,0-.34.01-.62,0-.9-.74-14.57-5.62-27.62-14.46-39.18-2.58-3.38-5.29-6.67-8.74-9.23-.37-1-1.3-1.45-2.04-2.07-5.2-4.41-10.87-8.1-17.15-10.79-4.86-2.46-9.96-4.22-15.33-5.16-4.03-1.16-8.14-1.72-12.32-1.73-.51-.09-1.03-.13-1.54-.15-7.06-.57-14,.33-20.89,1.97-5.07,1.04-9.97,2.61-14.57,5.02Z"/>
      </g>
    </g>
  </g>
</svg>